<svg width="308" height="222" viewBox="0 0 308 222" fill="none" xmlns="http://www.w3.org/2000/svg">
<path opacity="0.9" d="M50.5 186.5C32.1498 199.282 0 213.5 0 213.5C0 213.5 63 221.5 77.5 222C92 222.5 117.143 189.306 146 174C146 174 194.266 161.474 221 145C245.036 130.189 247.93 103.582 275.5 97.5C287.894 94.7658 308 97.5 308 97.5V0C308 0 297.105 18.68 286 26C270.587 36.1595 256.266 26.774 239.5 34.5C205.504 50.166 215.644 92.2344 184.5 113C157.541 130.975 132.483 118.665 104.5 135C79.3329 149.691 74.4118 169.844 50.5 186.5Z" fill="#D2E5DF"/>
</svg>
