<svg width="384" height="232" viewBox="0 0 384 232" fill="none" xmlns="http://www.w3.org/2000/svg">
<path opacity="0.9" d="M186 108.5C209.683 127.614 230.534 125.391 257.5 139.5C282.938 152.809 317.5 189.5 329.5 200.5L384 231.5H351C351 231.5 329.965 225.242 314.5 215.5C292.46 201.616 287.675 178.447 266 164C242.788 148.528 222.853 156.649 196.5 147.5C135.354 126.272 121.715 59.207 57 58C34.437 57.5792 0 67.5 0 67.5V0C0 0 96.169 2.04705 138.5 39C163.266 60.6195 160.418 87.8528 186 108.5Z" fill="#D2E5DF"/>
</svg>
