<svg width="573" height="635" viewBox="0 0 573 635" fill="none" xmlns="http://www.w3.org/2000/svg">
<path opacity="0.9" d="M87 69C56.3586 38.3154 0 0 0 0V253.5L51.5 303.5C51.5 303.5 126.831 320.9 158 355C180.977 380.138 175.5 394 195 420.5C214.5 447 258.567 429.274 292.5 445.5C320.492 458.885 323.174 488.448 353 497C372.896 502.705 388.5 473.5 406 497C419.323 514.89 418.809 530.646 434.5 546.5C446.881 559.01 458.415 560.309 472 571.5C496.931 592.037 525 635 525 635H573C573 635 525 619 525 582C525 524.816 506.267 491.28 472 445.5C437.014 398.759 388.98 400.98 353 355C325.608 319.995 339.25 276.966 301.5 253.5C264.5 230.5 219.188 228.601 177.5 195C130.331 156.982 129.809 111.869 87 69Z" fill="#D2D2E6"/>
</svg>
