<svg width="1000" height="800" viewBox="0 0 1000 800" fill="none" xmlns="http://www.w3.org/2000/svg">
<path d="M936.341 646.304H159.806C135.244 646.304 115.147 655.483 115.147 666.702C115.147 674.47 124.787 681.258 138.869 684.7H70.4891C45.9271 684.7 25.8301 693.879 25.8301 705.098C25.8301 716.317 45.9261 725.496 70.4891 725.496H94.3161C87.6611 729.06 83.6241 733.671 83.6241 738.694V746.853C83.6241 758.072 103.72 767.251 128.283 767.251H893.26C917.822 767.251 937.919 758.072 937.919 746.853V738.694C937.919 727.475 917.823 718.296 893.26 718.296L841.246 718.749C845.208 718.749 851.641 717.322 855.957 714.451C863.524 709.419 863.86 701.759 860.16 695.419C857.761 691.309 853.919 688.05 844.398 686.824L936.342 687.099C960.904 687.099 981.001 677.92 981.001 666.701C981 655.483 960.904 646.304 936.341 646.304Z" fill="#33AA5B"/>
<path d="M324.277 92.222C305.779 94.34 284.796 108.588 282.405 125.213C273.864 110.751 244.043 106.711 226.132 111.795C178.867 125.212 173.204 182.002 200.699 213.999C215.497 231.22 234.605 245.058 254.804 256.88C271.719 266.78 314.191 286.473 314.286 286.359C314.417 286.429 346.192 252.047 358.062 236.452C372.238 217.829 384.637 197.759 391.764 176.2C405.004 136.144 373.091 86.632 324.277 92.222Z" fill="#D34E4E"/>
<g opacity="0.12">
<path d="M383.324 182.6C374.213 199.433 363.035 215.753 350.29 230.39C337.965 244.544 322.854 257.74 304.733 264.736C296.028 268.096 287.157 269.624 278.422 269.356C296.084 278.15 315.13 286.947 315.193 286.87C315.324 286.939 347.099 252.558 358.969 236.963C373.145 218.34 385.544 198.27 392.671 176.711C394.977 169.735 395.91 162.473 395.626 155.265C392.303 164.644 388.1 173.776 383.324 182.6Z" fill="black"/>
</g>
<path d="M379.511 167.532C366.995 170.34 354.478 173.148 341.962 175.955C334.143 160.341 326.323 144.727 318.504 129.113C317.374 126.856 313.862 127.737 313.55 130.093C309.498 160.767 305.446 191.44 301.394 222.113C301.159 223.89 300.925 225.666 300.69 227.443C290.324 209.829 279.957 192.216 269.591 174.602C267.928 171.777 266.266 168.952 264.603 166.128C263.601 164.425 260.438 164.297 259.794 166.479C256.799 176.625 253.804 186.772 250.809 196.918C236.731 199.703 222.654 202.488 208.576 205.273C205.271 205.927 206.222 210.764 209.533 210.108C224.141 207.218 238.749 204.328 253.357 201.438C254.212 201.269 255.094 200.627 255.338 199.802C257.905 191.107 260.471 182.412 263.038 173.717C273.673 191.787 284.308 209.857 294.943 227.928C296.606 230.753 298.268 233.578 299.931 236.403C301.178 238.522 304.559 237.891 304.885 235.423C308.937 204.75 312.989 174.076 317.041 143.403C317.235 141.936 317.429 140.468 317.623 139.001C324.458 152.649 331.293 166.298 338.128 179.946C338.603 180.894 339.851 181.479 340.956 181.231C354.127 178.276 367.298 175.322 380.469 172.367C383.751 171.631 382.807 166.793 379.511 167.532Z" fill="white"/>
<path d="M753.128 164.665C752.875 165.207 752.23 165.442 751.688 165.188L709.477 145.485C708.935 145.232 708.701 144.587 708.954 144.045C709.207 143.503 709.852 143.268 710.394 143.522L752.605 163.225C753.147 163.478 753.381 164.123 753.128 164.665Z" fill="#3B455A"/>
<path d="M760.62 165.023L758.263 170.072L735.733 159.556C734.339 158.905 733.736 157.247 734.387 155.853C735.038 154.459 736.695 153.856 738.09 154.507L760.62 165.023Z" fill="#8EC3CB"/>
<path d="M942.872 245.353L939.666 251.465L912.534 237.233L902.837 255.719L929.969 269.951L926.763 276.063C925.467 278.533 926.419 281.586 928.889 282.881C931.359 284.177 934.412 283.225 935.707 280.755L951.816 250.045C953.112 247.575 952.16 244.522 949.69 243.227C947.22 241.931 944.168 242.883 942.872 245.353Z" fill="#474EBB"/>
<g opacity="0.12">
<path d="M918.341 263.851L928.038 245.366L935.293 249.171L920.329 264.894L918.341 263.851Z" fill="black"/>
</g>
<path d="M934.746 232.577L911.67 276.568C910.959 277.923 909.285 278.445 907.93 277.734L897.264 272.139L922.913 223.241L933.579 228.836C934.935 229.547 935.457 231.222 934.746 232.577Z" fill="#3B455A"/>
<path d="M932.594 210.064C930.333 209.058 927.675 210.104 926.525 212.296L924.642 215.887C923.47 218.122 920.707 218.983 918.472 217.811L795.127 153.11C793.641 152.331 791.929 152.096 790.288 152.448L754.98 160.014C754.312 160.157 753.742 160.591 753.427 161.197L749.772 168.216C749.457 168.82 749.428 169.533 749.691 170.161L763.592 203.354C764.237 204.895 765.4 206.163 766.879 206.939L890.236 271.646C892.471 272.818 893.332 275.581 892.16 277.816L890.276 281.407C889.126 283.599 889.776 286.38 891.889 287.669C894.204 289.081 897.192 288.228 898.431 285.865L934.83 216.474C936.069 214.109 935.072 211.166 932.594 210.064Z" fill="#8EC3CB"/>
<g opacity="0.17">
<path d="M795.31 160.205C793.892 159.461 792.302 159.156 790.815 159.341L758.826 163.329C758.221 163.404 757.725 163.727 757.474 164.21L754.567 169.799C754.317 170.28 754.336 170.87 754.619 171.408L769.562 199.867C770.256 201.188 771.407 202.316 772.819 203.056L890.498 264.784L795.31 160.205Z" fill="#DBE8EB"/>
</g>
<path d="M832.907 220.654L824.68 236.339L821.672 234.761L829.899 219.076C829.98 218.921 830.172 218.861 830.328 218.942L832.773 220.225C832.928 220.307 832.988 220.499 832.907 220.654Z" fill="#3B455A"/>
<path d="M790.91 198.625L782.683 214.31L779.675 212.732L787.902 197.047C787.983 196.892 788.175 196.832 788.331 196.913L790.776 198.196C790.931 198.277 790.991 198.469 790.91 198.625Z" fill="#3B455A"/>
<path d="M874.904 242.684L866.677 258.369L863.669 256.791L871.896 241.106C871.977 240.951 872.169 240.891 872.325 240.972L874.77 242.255C874.925 242.337 874.985 242.529 874.904 242.684Z" fill="#3B455A"/>
<path d="M849.575 239.267L845.408 247.212L842.94 245.917L847.107 237.972C847.174 237.845 847.331 237.796 847.459 237.862L849.466 238.915C849.593 238.982 849.642 239.14 849.575 239.267Z" fill="#3B455A"/>
<path d="M807.578 217.238L803.41 225.183L800.942 223.888L805.11 215.943C805.177 215.815 805.334 215.766 805.462 215.833L807.469 216.886C807.596 216.952 807.645 217.11 807.578 217.238Z" fill="#3B455A"/>
<path d="M412.651 516.975L407.454 588.089L390.246 705.824H377.015L368.659 597.189L364.957 509.296L412.651 516.975Z" fill="#CCD2D9"/>
<path d="M377.092 704.249V711.403L391.4 718.557L398.554 711.403L391.4 704.249H377.092Z" fill="#3B455A"/>
<path d="M318.929 500.215L323.957 599.898L335.472 714.333H349.024L360.038 605.911L376.128 491.793L318.929 500.215Z" fill="#CCD2D9"/>
<path d="M348.946 712.72V720.047L334.291 727.375L326.963 720.047L334.291 712.72H348.946Z" fill="#3B455A"/>
<path d="M365.117 340.389C360.494 339.937 355.871 339.485 351.248 339.033C351.198 335.329 351.445 331.621 351.985 327.956C348.13 326.607 343.676 324.581 342.999 320.554C342.786 319.285 343.003 317.989 343.221 316.721C344.119 311.48 345.018 306.238 345.916 300.997C346.227 299.184 346.557 297.318 347.541 295.764C349.267 293.037 352.622 291.84 355.801 291.284C363.914 289.864 372.758 291.61 379.057 296.916C380.733 298.328 382.25 300.027 382.991 302.089C384.134 305.27 383.287 308.781 382.433 312.051C381.645 315.069 380.857 318.087 380.068 321.106C379.162 324.578 377.851 328.524 374.509 329.83C372.735 330.523 370.638 330.324 369.032 331.349C366.2 333.155 366.587 337.369 365.117 340.389Z" fill="#EFBFA5"/>
<path d="M397.579 286.805C397.986 282.52 398.203 278.989 397.316 274.795C396.797 272.339 393.657 264.605 394.612 262.422C392.826 266.207 388.007 267.252 383.843 267.668C368.238 269.226 350.825 265.368 336.478 273.377C333.858 274.839 331.769 277.122 330.142 279.643C324.505 288.376 324.49 300.407 330.105 309.154C331.365 311.116 332.872 312.91 334.455 314.622C337.732 318.166 341.652 322.544 346.155 323.853C346.257 319.826 342.572 307.134 345.661 303.829C349.997 299.191 357.881 300.095 363.515 300.897C370.749 301.927 377.78 301.861 385.082 301.011C387.432 300.737 389.817 300.454 392 299.542C397.224 297.36 397.04 292.507 397.509 287.551C397.531 287.311 397.555 287.062 397.579 286.805Z" fill="#3B455A"/>
<path d="M273.432 280.794L271.749 272.184L276.17 265.834L275.3 264.214L273.262 265.204L275.422 258.884L273.501 253.814L266.526 251.973L259.672 254.902L258.578 262.022L261.688 270.003L263.481 281.889L273.432 280.794Z" fill="#EFBFA5"/>
<path d="M274.53 274.719L261.31 273.893L267.212 346.025L323.335 375.707L336.266 340.674L291.897 320.266L274.53 274.719Z" fill="#EBB044"/>
<path d="M425.964 249.45L426.413 240.689L421.14 235.027L421.772 233.3L423.929 233.992L420.898 228.04L422.084 222.751L428.729 219.942L435.928 221.874L438.017 228.768L436.065 237.109L435.969 249.129L425.964 249.45Z" fill="#EFBFA5"/>
<path d="M424.018 243.591L436.989 240.906L438.017 290.81L432.92 329.38L399.751 378.06L372.595 338.771L404.125 315.6L424.018 243.591Z" fill="#EBB044"/>
<path d="M376.099 336.822L332.281 338.678L310.163 422.867L291.897 539.579L432.92 543.008L399.751 378.06L376.099 336.822Z" fill="#EBB044"/>
<path d="M593.399 306.703L591.788 298.289L596.128 292.106L595.284 290.521L593.291 291.48L595.423 285.317L593.566 280.36L586.762 278.536L580.06 281.371L578.965 288.319L581.972 296.123L583.679 307.736L593.399 306.703Z" fill="#C1796B"/>
<path d="M593.846 297.874L580.608 309.124L582.487 366.894L604.753 382.403L647.305 376.951L641.628 340.389L606.086 347.235L593.846 297.874Z" fill="#474EBB"/>
<path d="M729.466 700.523L731.13 708.157L717.942 719.029L708.852 713.013L714.614 703.76L727.802 692.889L729.466 700.523Z" fill="#3B455A"/>
<path d="M683.345 465.786L698.061 499.721L699.449 595.197L729.707 697.893L715.637 704.133L653.891 584.887L646.863 547.118L644.07 467.573L683.345 465.786Z" fill="#474EBB"/>
<path d="M612.096 473.392L610.939 573.45L629.794 702.46H644.293L653.45 583.421L673.289 464.381L612.096 473.392Z" fill="#474EBB"/>
<path d="M644.209 700.735V708.574L628.531 716.413L620.692 708.574L628.531 700.735H644.209Z" fill="#3A332D"/>
<path d="M640.647 337.904L679.159 336.478C679.159 336.478 702.198 356.693 714.105 409.223C726.229 462.712 711.866 539.714 711.866 539.714C711.866 539.714 608.543 525.943 591.601 523.816L617.448 418.206L640.647 337.904Z" fill="#474EBB"/>
<path d="M654.448 341.838C658.945 341.398 663.443 340.958 667.94 340.519C667.988 336.916 667.749 333.308 667.223 329.743C670.973 328.43 675.306 326.46 675.965 322.542C676.172 321.308 675.961 320.046 675.749 318.813C674.875 313.714 674.001 308.615 673.127 303.516C672.825 301.752 672.503 299.937 671.546 298.425C669.867 295.772 666.603 294.608 663.511 294.067C655.619 292.686 647.015 294.385 640.887 299.546C639.256 300.92 637.781 302.572 637.06 304.579C635.948 307.673 636.772 311.089 637.603 314.27C638.37 317.206 639.137 320.142 639.903 323.079C640.785 326.456 642.059 330.296 645.31 331.566C647.036 332.24 649.075 332.047 650.638 333.044C653.395 334.801 653.018 338.9 654.448 341.838Z" fill="#C1796B"/>
<path d="M610.51 290.878C610.422 287.382 610.914 283.846 611.612 280.658C612.812 275.181 619.274 272.719 624.868 272.331C636.949 271.493 648.608 266.016 660.406 270.243C667.15 272.66 676.207 273.239 682.31 276.646C684.858 278.069 686.89 280.289 688.473 282.741C693.957 291.237 693.972 302.94 688.509 311.449C687.283 313.358 685.817 315.102 684.277 316.768C681.089 320.216 677.276 324.474 672.895 325.748C672.796 321.831 676.381 309.484 673.377 306.269C668.61 301.168 657.813 302.931 651.889 304.177C645.427 305.536 639.663 310.103 633.257 311.072C628.648 311.769 622.769 309.501 618.853 307.114C612.717 303.375 610.668 297.194 610.51 290.878Z" fill="#3B455A"/>
<path d="M651.269 342.665L610.782 504.613L607.463 525.852L657.906 532.489C657.906 532.489 655.915 454.938 656.578 444.598C657.242 434.258 664.723 411.894 665.87 387.798C666.534 373.86 670.961 348.825 667.861 340.674L651.269 342.665Z" fill="white"/>
<path d="M116.527 705.865L116.319 708.034L115.627 715.233L101.053 721.476L94.804 713.8L102.437 707.079L103.141 706.777L103.226 707.673L116.527 705.865Z" fill="#3B455A"/>
<path d="M117.268 705.765L116.527 705.866H115.75L103.226 707.673L91.6031 585.254L90.1821 579.513C101.085 579.672 114.042 579.835 127.098 579.938L117.268 705.765Z" fill="#C1796B"/>
<path d="M175.545 579.875L172.862 611.684L145.956 694.155L132.811 692.408L132.597 694.02L132.522 694.01L142.209 609.019L133.914 579.987C149.174 580.08 164.097 580.077 175.545 579.875Z" fill="#C1796B"/>
<path d="M145.957 694.155L146.785 694.265L152.798 702.518L144.838 708.913L131.838 699.732L132.598 694.02L145.444 695.727L145.957 694.155Z" fill="#3B455A"/>
<path d="M145.957 694.155L145.444 695.727L132.598 694.02L132.812 692.408L145.957 694.155Z" fill="#3E3D3B"/>
<path d="M84.3721 394.919C82.6831 402.877 76.3841 408.715 70.2341 414.242C74.7721 402.604 79.4801 392.346 84.0071 383.488C84.8211 387.294 85.1841 391.096 84.3721 394.919Z" fill="#8EC3CB"/>
<path d="M61.581 579.032C61.581 579.032 73.467 579.268 90.183 579.513C101.086 579.672 114.043 579.835 127.099 579.938C129.372 579.956 131.647 579.972 133.915 579.986C149.174 580.08 164.097 580.077 175.545 579.875C184.195 579.723 190.862 579.456 194.186 579.033L166.275 434.65L166.166 434.204L158.741 403.98L147.915 359.913L120.927 347.052C118.051 346.591 115.455 345.282 113.225 343.382L112.246 342.915C112.559 344.153 112.939 345.308 113.394 346.342C113.58 346.765 113.778 347.169 113.988 347.552C116.239 351.655 119.72 355.508 119.633 360.187C119.617 361.056 119.471 361.905 119.255 362.743C118.862 364.266 118.23 365.748 117.666 367.224C111.676 382.913 118.262 400.625 128.004 413.881C132.994 420.671 139.583 426.557 142.426 434.489C142.914 435.85 143.22 437.305 143.357 438.786C144.019 445.933 140.653 453.718 133.771 454.882C132.151 455.156 130.43 455.049 128.94 455.742C123.854 458.105 126.053 466.444 122.288 470.601C119.856 473.287 115.743 473.381 112.122 473.277C110.937 473.243 109.684 473.189 108.691 472.541C106.575 471.161 106.779 468.086 106.155 465.638C105.025 461.202 100.596 458.29 96.125 457.311C91.654 456.331 87.012 456.851 82.435 456.859C76.716 456.868 70.869 456.02 65.826 453.324C63.846 452.266 62.008 450.886 60.443 449.263C51.424 504.414 61.581 579.032 61.581 579.032Z" fill="#8EC3CB"/>
<path d="M112.111 342.353C109.581 331.394 112.323 314.079 119.65 307.618C122.531 305.078 125.823 304.617 129.494 304.59C131.229 304.577 131.809 305.026 132.704 304.868C135.435 308.381 137.265 312.668 136.929 316.722C136.646 320.134 134.681 322.736 134.523 326.4C134.211 333.07 124.673 339.767 128.337 346.391C125.719 347.245 123.234 347.422 120.928 347.052L113.226 343.382C112.843 343.055 112.471 342.712 112.111 342.353Z" fill="#C1796B"/>
<path d="M120.928 347.052C118.052 346.591 115.456 345.282 113.226 343.382L120.928 347.052Z" fill="#E1CFB5"/>
<path d="M134.524 326.4C134.681 322.735 136.647 320.134 136.93 316.722C137.266 312.668 135.436 308.381 132.705 304.868C133.107 304.798 133.572 304.605 134.234 304.193C135.548 303.375 136.72 301.234 137.336 299.488C140.741 301.642 143.218 305.531 143.901 311.453C144.643 317.891 144.631 324.683 142.425 331.125C140.218 337.567 135.509 343.624 129.399 346.015C129.043 346.154 128.69 346.277 128.338 346.391C124.673 339.766 134.212 333.07 134.524 326.4Z" fill="#C1796B"/>
<path d="M55.671 440.233C56.255 443.657 58.019 446.753 60.442 449.263C60.635 448.082 60.837 446.91 61.048 445.747C60.837 446.909 60.635 448.082 60.442 449.263C62.007 450.885 63.845 452.265 65.825 453.324C70.868 456.02 76.715 456.868 82.434 456.859C87.011 456.852 91.653 456.331 96.124 457.311C100.595 458.291 105.024 461.203 106.154 465.639C106.778 468.087 106.574 471.161 108.69 472.542C109.683 473.19 110.936 473.244 112.121 473.278C115.742 473.382 119.856 473.287 122.287 470.602C126.052 466.445 123.853 458.106 128.939 455.743C130.429 455.05 132.15 455.157 133.77 454.883C140.652 453.719 144.018 445.934 143.356 438.787C143.219 437.306 142.913 435.852 142.425 434.49C139.582 426.558 132.993 420.671 128.003 413.882C118.262 400.625 111.675 382.914 117.665 367.225C118.229 365.749 118.861 364.267 119.254 362.744C119.47 361.907 119.616 361.057 119.633 360.188C119.72 355.509 116.239 351.656 113.988 347.553C113.778 347.17 113.58 346.766 113.394 346.343C112.939 345.308 112.559 344.154 112.247 342.915C112.2 342.729 112.155 342.542 112.111 342.353C105.202 335.462 102.433 322.66 106.98 313.094C102.432 322.661 105.201 335.462 112.111 342.353C109.581 331.394 112.323 314.079 119.65 307.618C122.531 305.078 125.823 304.617 129.494 304.59C131.229 304.577 131.809 305.026 132.704 304.868C133.106 304.798 133.571 304.605 134.233 304.193C135.548 303.375 136.719 301.234 137.335 299.489C140.74 301.643 143.217 305.532 143.9 311.454C144.642 317.892 144.631 324.684 142.424 331.126C140.218 337.568 135.508 343.625 129.398 346.016C129.042 346.155 128.689 346.278 128.338 346.392C128.642 346.941 129.025 347.49 129.523 348.038C132.868 351.718 138.237 352.573 143.169 353.21C143.767 353.287 144.395 353.361 144.957 353.142C145.882 352.782 146.358 351.711 146.366 350.718C146.373 349.725 146.017 348.772 145.743 347.817C142.877 337.836 147.955 326.435 148.802 316.373C149.647 306.33 147.574 295.402 139.513 288.612C138.145 288.987 136.817 289.502 135.549 290.137C135.423 289.969 135.293 289.804 135.159 289.643C123.491 275.632 107.016 287.61 98.154 298.309C90.849 307.129 84.759 317.256 81.966 328.448C79.354 338.915 78.482 354.297 79.587 364.996C80.232 371.243 82.702 377.372 84.008 383.489C84.821 387.295 85.183 391.097 84.372 394.92C82.683 402.878 76.384 408.716 70.234 414.243C69.674 415.679 69.117 417.135 68.562 418.611C68.008 420.088 67.457 421.585 66.91 423.105C67.457 421.585 68.008 420.087 68.562 418.611C69.116 417.134 69.674 415.678 70.234 414.243C69.383 415.007 68.535 415.766 67.703 416.523C60.853 422.754 54.114 431.103 55.671 440.233Z" fill="#3B455A"/>
<path d="M801.79 522.058L858.662 501.143L846.94 600.773L853.732 686.728L854.333 692.196L843.159 692.49L817.106 612.027L803.846 530.452L801.79 522.058Z" fill="#EFBFA5"/>
<path d="M843.159 692.49L854.794 692.196L857.765 702.014L857.472 702.101L857.546 702.109L838.31 713.507L829.164 714.524L828.001 704.071L830.472 702.261L843.159 692.49Z" fill="#3B455A"/>
<path d="M763.05 523.769L780.519 698.358L791.765 700.011L802.686 602.756L822.291 511.023L763.05 523.769Z" fill="#EFBFA5"/>
<path d="M780.148 698.315L765.237 706.77L766.634 713.806L793.277 709.79L791.709 699.653L780.148 698.315Z" fill="#3B455A"/>
<path d="M736.386 566.61C732.787 564.111 732.71 559.76 732.717 555.403C732.729 547.22 734.2 538.856 736.076 530.904C739.647 515.987 743.696 498.02 745.476 478.69C750.077 428.732 765.854 395.208 765.854 395.208L770.945 381.633C771.957 379.868 773.006 378.122 774.103 376.402C780.461 366.425 791.501 349.47 803.307 346.695C803.554 346.637 803.802 346.58 804.051 346.526C816.464 343.802 832.371 345.066 843.589 351.101C845.717 352.246 847.61 353.771 849.49 355.287C854.976 359.712 859.449 362.108 861.814 368.851C863.867 374.706 864.345 381.094 865.477 387.161C867.777 399.488 869.149 411.962 870.986 424.36C874.43 447.61 877.355 470.935 881.039 494.149C882.935 506.096 884.845 518.066 885.741 530.138C886.533 540.812 896.163 551.65 901.574 561.216C903.457 564.545 876.414 573.17 873.99 573.735C862.772 576.346 850.839 575.679 839.275 575.732C813.933 575.847 788.586 575.065 763.3 573.389C754.897 572.832 744.542 571.228 737.085 567.044C736.837 566.907 736.605 566.762 736.386 566.61Z" fill="#D34E4E"/>
<path d="M817.97 345.16C817.97 345.16 832.245 341.306 834.217 373.516C836.189 405.726 839.476 487.236 844.077 509.585C848.678 531.935 855.58 575.772 855.58 575.772L811.867 577.291L761.909 573.347C761.909 573.347 779 541.795 781.629 519.445C784.258 497.095 779.657 412.956 790.832 381.404C802.007 349.852 804.352 345.727 817.97 345.16Z" fill="white"/>
<path d="M753.364 416.9L730.566 413.384V393.745L785.574 351.823L803.322 346.565L794.776 369.572L753.364 416.9Z" fill="#D34E4E"/>
<path d="M798.06 319.641C795.9 326.126 799.026 333.042 801.77 338.952C804.204 344.193 805.05 347.643 798.872 349.057C795.391 349.854 789.215 351.341 786.162 348.676C783.851 346.657 785.15 340.422 786.274 337.945C787.133 336.054 789.406 335.093 790.214 333.179C790.547 332.39 790.595 331.514 790.607 330.658C790.655 327.161 790.172 323.658 789.178 320.305C788.503 318.028 787.588 315.792 787.385 313.426C787.089 309.996 789.515 305.998 790.79 302.846C793.162 296.982 801.416 289.116 808.328 293.719C809.902 294.767 810.818 296.539 811.584 298.268C812.041 299.3 812.476 300.378 812.49 301.507C812.543 306.009 808.432 306.769 805.593 308.912C802.092 311.555 799.438 315.502 798.06 319.641Z" fill="#3B455A"/>
<path d="M811.206 344.948C805.211 343.536 800.523 338.502 798.271 332.769C796.019 327.037 795.901 320.679 796.524 314.552C798.597 294.161 823.963 295.47 832.553 311.098C840.038 324.718 828.638 349.054 811.206 344.948Z" fill="#EFBFA5"/>
<path d="M811.212 342.75C811.313 345.073 811.413 347.396 811.514 349.719C811.529 350.059 811.557 350.432 811.795 350.676C812.066 350.953 812.503 350.958 812.89 350.945C814.783 350.879 816.676 350.814 818.569 350.749C819.507 350.717 820.483 350.674 821.31 350.231C823.121 349.259 823.495 346.805 823.206 344.771C822.917 342.737 822.187 340.686 822.619 338.677C818.71 340.603 814.998 336.251 811.089 338.177L811.212 342.75Z" fill="#EFBFA5"/>
<path d="M819.393 279.199C826.053 281.462 830.324 288.198 836.824 290.889C840.552 292.432 844.963 292.628 848.004 295.279C854.82 301.219 849.342 313.684 854.941 320.782C856.105 322.258 857.675 323.374 858.844 324.846C861.365 328.021 861.695 332.355 861.92 336.403C861.971 337.314 861.98 338.306 861.822 339.222C860.946 348.571 847.374 347.976 841.983 347.377C836.067 346.72 838.039 343.433 838.039 343.433L838.254 343.17C838.822 339.374 837.261 335.326 834.278 332.908C833.171 332.011 831.862 331.296 831.082 330.104C829.33 327.428 831.002 323.884 830.745 320.696C829.708 307.859 808.163 310.61 802.083 301.47C794.628 290.264 806.814 274.926 819.393 279.199Z" fill="#3B455A"/>
<path d="M872.354 261.611L864.107 250.071L859.021 253.381L862.919 262.534L859.787 262.983L868.048 271.998L873.799 269.271L872.354 261.611Z" fill="#EFBFA5"/>
<path d="M837.44 360.082L880.583 325.235L864.57 271.998L880.482 265.519L910.147 335.719L866.945 390.221L837.44 360.082Z" fill="#D34E4E"/>
<path d="M778.505 420.171L791.39 418.041L790.719 412.494L781.573 411.999L782.473 409.229L771.669 412.395L771.588 418.255L778.505 420.171Z" fill="#EFBFA5"/>
<path d="M743.501 399.33L743.434 400.451L774.968 410.096L774.212 421.716L730.566 410.523L743.501 399.33Z" fill="#D34E4E"/>
<path d="M671.723 720.2H546.648C536.769 720.2 528.76 712.191 528.76 702.312V617.518C528.76 607.639 536.769 599.63 546.648 599.63H671.723C681.602 599.63 689.611 607.639 689.611 617.518V702.312C689.611 712.191 681.602 720.2 671.723 720.2Z" fill="#D34E4E"/>
<path d="M644.409 593.075C644.409 585.369 644.409 577.662 644.409 569.956C644.409 567.867 642.422 566.092 640.072 566.092C621.805 566.092 603.538 566.092 585.271 566.092C582.658 566.092 580.045 566.092 577.432 566.092C575.087 566.092 573.095 567.862 573.095 569.956C573.095 577.644 573.095 585.332 573.095 593.019C569.589 593.121 566.777 596.038 566.777 599.63H588.028C588.028 596.058 585.247 593.155 581.769 593.022C581.769 586.621 581.769 580.22 581.769 573.82C598.59 573.82 615.412 573.82 632.233 573.82C633.4 573.82 634.567 573.82 635.735 573.82C635.735 580.216 635.735 586.613 635.735 593.01H635.301C631.708 593.01 628.795 595.974 628.795 599.63H650.046C650.047 596.273 647.591 593.507 644.409 593.075Z" fill="#D34E4E"/>
<path d="M646.465 647.795C637.756 647.795 629.046 647.795 620.337 647.795C619.521 647.795 618.705 647.795 617.89 647.795C617.89 641.34 617.89 634.886 617.89 628.431C617.89 625.193 617.89 621.954 617.89 618.716C617.89 617.637 616.991 616.72 615.929 616.72C610.516 616.72 605.103 616.72 599.69 616.72C598.63 616.72 597.729 617.634 597.729 618.716C597.729 627.579 597.729 636.442 597.729 645.305C597.729 646.135 597.729 646.965 597.729 647.796C591.386 647.796 585.044 647.796 578.701 647.796C575.519 647.796 572.336 647.796 569.154 647.796C568.094 647.796 567.192 648.71 567.192 649.792C567.192 655.3 567.192 660.808 567.192 666.317C567.192 666.929 567.416 667.394 567.755 667.714C568.071 668.074 568.536 668.313 569.154 668.313C577.863 668.313 586.573 668.313 595.282 668.313C596.098 668.313 596.914 668.313 597.729 668.313C597.729 674.767 597.729 681.222 597.729 687.677C597.729 690.915 597.729 694.154 597.729 697.392C597.729 698.471 598.628 699.388 599.69 699.388C605.103 699.388 610.516 699.388 615.929 699.388C616.53 699.388 616.987 699.16 617.302 698.815C617.656 698.494 617.891 698.02 617.891 697.392C617.891 688.529 617.891 679.666 617.891 670.803C617.891 669.973 617.891 669.143 617.891 668.313C624.234 668.313 630.576 668.313 636.919 668.313C640.101 668.313 643.284 668.313 646.466 668.313C647.526 668.313 648.427 667.398 648.427 666.317C648.427 660.809 648.427 655.301 648.427 649.792C648.427 648.712 647.528 647.795 646.465 647.795Z" fill="white"/>
<path d="M320.11 397.634C324.523 417.981 344.535 430.908 364.807 426.509C385.078 422.109 397.933 402.049 393.52 381.703C389.106 361.356 369.095 348.428 348.823 352.828C328.551 357.227 315.696 377.287 320.11 397.634Z" fill="#3B455A"/>
<path d="M331.585 395.143C334.619 409.128 348.374 418.015 362.308 414.991C376.241 411.967 385.078 398.178 382.044 384.193C379.01 370.208 365.255 361.321 351.321 364.345C337.388 367.369 328.551 381.158 331.585 395.143Z" fill="#CCD2D9"/>
<path d="M380.729 523.527L390.564 521.392L365.079 403.972L355.243 406.107L380.729 523.527Z" fill="#CCD2D9"/>
<path d="M348.575 392.405C349.614 397.192 354.322 400.234 359.092 399.199C363.861 398.164 366.886 393.443 365.848 388.656C364.809 383.868 360.101 380.827 355.332 381.862C350.563 382.897 347.537 387.617 348.575 392.405Z" fill="#3B455A"/>
<g opacity="0.13">
<path d="M353.607 398.622L359.816 427.246C359.816 427.246 354.045 427.565 350.776 426.872L352.041 397.715L353.607 398.622Z" fill="black"/>
</g>
<path d="M552.976 489.367C550.791 489.755 548.919 491.639 546.496 491.407C547.037 494.86 545.812 486.84 546.15 490.33C546.601 494.994 546.886 499.677 546.997 504.373C547.06 507.034 547.066 509.698 547.011 512.366C547.002 512.826 546.905 515.325 546.987 513.436C546.957 514.139 546.932 514.842 546.897 515.544C546.831 516.9 546.747 518.256 546.646 519.612C546.207 525.512 545.438 531.42 544.235 537.301C543.623 540.289 542.899 543.269 542.043 546.234C541.594 547.787 541.109 549.336 540.584 550.879C540.36 551.538 540.121 552.195 539.889 552.853C539.846 552.975 539.77 553.177 539.71 553.334C539.662 553.458 539.615 553.582 539.565 553.706C537.268 559.392 534.489 564.974 530.831 570.293C530.384 570.942 529.918 571.584 529.451 572.225C529.936 571.552 528.708 573.181 528.459 573.488C527.557 574.601 526.613 575.696 525.628 576.768C523.571 579.006 521.316 581.109 518.919 583.135C519.374 582.737 517.477 584.253 517.124 584.512C516.438 585.014 515.739 585.506 515.028 585.987C513.739 586.858 512.411 587.693 511.046 588.488C510.126 589.024 509.19 589.542 508.239 590.041C507.92 590.209 507.592 590.367 507.275 590.538C507.241 590.556 507.212 590.572 507.182 590.588C507.151 590.602 507.12 590.615 507.085 590.63C505.541 591.306 504.025 592.006 502.444 592.626C500.458 593.406 498.429 594.11 496.369 594.74C495.502 595.006 494.629 595.257 493.752 595.496C493.36 595.603 492.965 595.705 492.571 595.808C492.543 595.814 492.517 595.82 492.493 595.825C488.266 596.706 484.076 597.516 479.766 597.949C478.536 598.072 477.307 598.156 476.076 598.244C475.997 598.25 475.917 598.253 475.838 598.257C475.853 598.257 475.792 598.26 475.691 598.265C475.415 598.28 475.14 598.292 474.866 598.306C475.065 598.296 475.227 598.287 475.36 598.28C475.185 598.287 475.001 598.293 474.878 598.294C473.026 598.307 471.182 598.308 469.341 598.218C467.368 598.122 465.409 597.951 463.471 597.705C462.654 597.601 461.848 597.466 461.034 597.354C461.014 597.351 460.998 597.349 460.979 597.346C460.94 597.337 460.901 597.328 460.856 597.318C460.511 597.24 460.154 597.18 459.806 597.108C456.349 596.389 453.001 595.422 449.802 594.238C449.321 594.06 446.359 592.799 448.221 593.636C447.534 593.327 446.839 593.029 446.16 592.711C444.72 592.037 443.316 591.321 441.949 590.566C439.179 589.036 436.587 587.344 434.102 585.554C433.908 585.41 433.65 585.218 433.532 585.124C433.151 584.821 432.765 584.523 432.387 584.218C431.818 583.759 431.256 583.293 430.703 582.822C429.525 581.819 428.384 580.791 427.276 579.74C424.908 577.493 422.694 575.146 420.616 572.726C419.51 571.439 418.443 570.13 417.41 568.804C417.12 568.43 416.058 567.001 416.653 567.817C416.229 567.236 415.804 566.655 415.389 566.07C408.118 555.823 402.638 544.764 398.239 533.465C397.229 530.871 396.278 528.259 395.383 525.634C395.147 524.943 394.919 524.249 394.687 523.556C394.664 523.491 394.647 523.437 394.63 523.389C394.605 523.308 394.572 523.205 394.53 523.071C394.155 521.874 393.782 520.677 393.423 519.477C392.186 515.331 391.077 511.155 390.1 506.953C389.201 503.09 388.353 499.2 387.795 495.278C386.698 487.555 371.088 489.774 372.183 497.485C372.222 497.757 372.272 498.028 372.308 498.301C373.097 504.197 374.609 510.046 376.148 515.802C379.085 526.791 382.796 537.65 387.583 548.146C398.026 571.048 414.511 595.262 443.864 605.876C474.606 616.992 515.045 607.188 536.531 585.092C556.832 564.213 561.791 536.933 562.558 512.441C562.928 500.637 564.156 500.141 562.154 488.508C559.416 489.68 555.82 488.862 552.976 489.367ZM492.617 595.798C493.704 595.517 493.022 595.704 492.617 595.798ZM539.643 553.513C539.62 553.57 539.617 553.579 539.643 553.513Z" fill="#7FC5A3"/>
<path d="M555.729 251.029C566.969 249.146 578.208 247.262 589.447 245.379C591.845 244.977 594.225 246.676 594.629 249.089C598.931 274.772 603.232 300.456 607.533 326.139C608.14 329.762 608.747 333.385 609.354 337.008C610.314 342.739 601.442 344.235 600.481 338.495C596.179 312.811 591.878 287.128 587.577 261.445C587.218 259.306 586.86 257.168 586.502 255.029C576.742 256.664 566.981 258.3 557.22 259.936C551.511 260.892 550.01 251.987 555.729 251.029Z" fill="#CCD2D9"/>
<path d="M545.171 266.243L555.409 264.527L552.426 246.714L542.187 248.43C538.04 249.125 535.241 253.048 535.935 257.193L536.404 259.994C537.099 264.14 541.024 266.938 545.171 266.243Z" fill="#3B455A"/>
<path d="M554.26 266.144L562.937 264.69C567.729 263.887 570.962 259.354 570.16 254.564L569.618 251.327C568.816 246.537 564.28 243.304 559.488 244.107L550.813 245.561L554.26 266.144Z" fill="#CCD2D9"/>
<path d="M467.685 265.172C456.446 267.055 445.206 268.939 433.966 270.822C431.568 271.224 429.871 273.606 430.275 276.018C434.577 301.702 438.878 327.385 443.18 353.068C443.787 356.691 444.394 360.314 445.001 363.937C445.961 369.668 454.835 368.191 453.874 362.45C449.572 336.767 445.271 311.083 440.97 285.4C440.612 283.261 440.253 281.123 439.896 278.984C449.656 277.348 459.417 275.713 469.178 274.077C474.886 273.122 473.403 264.214 467.685 265.172Z" fill="#CCD2D9"/>
<path d="M482.625 276.113L472.386 277.829L469.402 260.016L479.64 258.301C483.787 257.606 487.712 260.403 488.406 264.548L488.875 267.35C489.57 271.496 486.771 275.419 482.625 276.113Z" fill="#3B455A"/>
<path d="M473.998 278.983L465.323 280.437C460.531 281.24 455.995 278.007 455.193 273.217L454.65 269.98C453.848 265.191 457.082 260.657 461.874 259.854L470.551 258.4L473.998 278.983Z" fill="#CCD2D9"/>
<g opacity="0.13">
<path d="M546.53 498.365C546.53 498.365 547.167 503.887 547.598 510.292L562.62 500.613L561.578 493.969L546.53 498.365Z" fill="black"/>
</g>
<path d="M612.547 337.186C616.206 353.2 617.851 369.879 618.408 386.261C619.397 415.318 616.725 447.62 599.508 472.089C581.288 497.985 544.796 509 515.771 495.335C488.057 482.287 471.232 453.294 460.049 425.952C454.923 413.421 450.761 400.475 447.301 387.388C445.489 380.532 443.695 373.567 442.562 366.557C442.509 366.233 442.444 365.911 442.39 365.587C440.85 356.418 455.045 354.024 456.587 363.208C457.371 367.872 458.42 372.502 459.512 377.1C460.701 382.102 462.009 387.076 463.433 392.016C463.845 393.446 464.272 394.872 464.699 396.298C465.265 398.186 464.364 395.262 464.876 396.876C465.137 397.701 465.395 398.528 465.659 399.353C466.665 402.483 467.719 405.596 468.827 408.691C473.652 422.169 479.453 435.378 486.844 447.652C487.315 448.433 487.795 449.208 488.275 449.983C487.374 448.527 488.579 450.449 488.891 450.928C489.932 452.518 491.004 454.087 492.108 455.632C494.186 458.536 496.383 461.356 498.715 464.059C499.805 465.323 500.926 466.561 502.078 467.769C502.62 468.337 503.167 468.898 503.722 469.452C504.09 469.82 504.466 470.18 504.837 470.546C505.138 470.842 506.353 471.941 504.996 470.711C507.526 473.004 510.154 475.174 512.95 477.134C514.259 478.051 515.599 478.923 516.969 479.745C517.616 480.133 518.275 480.497 518.927 480.875C517.159 479.852 519.968 481.394 520.422 481.614C523.444 483.068 526.588 484.267 529.816 485.174C530.14 485.266 530.474 485.341 530.796 485.44C532.469 485.948 529.238 485.154 530.961 485.485C531.717 485.63 532.467 485.803 533.226 485.939C535.023 486.261 536.836 486.493 538.657 486.638C540.355 486.773 542.049 486.801 543.752 486.814C544.198 486.817 545.5 486.736 543.742 486.828C544.11 486.809 544.481 486.8 544.85 486.772C545.976 486.686 547.099 486.606 548.221 486.479C552.153 486.031 555.949 485.134 559.773 484.153C560.117 484.065 561.134 483.715 559.568 484.225C560.015 484.079 560.463 483.934 560.908 483.782C561.698 483.511 562.482 483.226 563.261 482.925C565.111 482.209 566.928 481.404 568.699 480.509C570.109 479.797 571.453 478.99 572.826 478.211C574.369 477.336 571.554 479.126 572.994 478.104C573.273 477.906 573.564 477.723 573.845 477.529C574.686 476.951 575.51 476.351 576.318 475.729C577.518 474.806 578.681 473.835 579.805 472.821C580.426 472.261 581.034 471.688 581.63 471.103C581.988 470.751 584.166 468.392 582.802 469.936C585.011 467.435 587.068 464.829 588.911 462.043C589.743 460.785 590.534 459.5 591.287 458.193C591.522 457.785 592.791 455.389 591.88 457.163C592.344 456.259 592.807 455.355 593.247 454.437C596.242 448.181 598.41 441.598 600.128 434.885C600.215 434.544 600.295 434.201 600.378 433.859C599.97 435.539 600.275 434.3 600.367 433.877C600.534 433.1 600.708 432.324 600.869 431.545C601.244 429.722 601.583 427.891 601.888 426.054C602.47 422.548 602.93 419.022 603.285 415.485C603.984 408.524 604.283 401.523 604.278 394.527C604.277 392.919 604.261 391.311 604.228 389.703C604.211 388.869 604.185 388.036 604.165 387.202C604.22 389.443 604.135 386.478 604.112 385.933C603.978 382.768 603.789 379.605 603.547 376.446C603.12 370.871 602.534 365.308 601.797 359.766C600.936 353.296 599.74 346.912 598.555 340.499C598.497 340.187 598.422 339.877 598.351 339.568C597.482 335.76 600.582 331.869 604.256 331.254C608.286 330.575 611.675 333.367 612.547 337.186Z" fill="#7FC5A3"/>
<path d="M481.908 612.899L481.895 612.845C482.332 612.732 482.546 612.678 482.566 612.674L482.593 612.67L482.599 612.696C482.601 612.705 482.603 612.713 482.576 612.725V612.728C482.576 612.728 482.568 612.73 482.556 612.733C482.489 612.759 482.321 612.803 481.908 612.899Z" fill="#A0A2A5"/>
<path d="M535.73 564.537L535.678 564.516L535.7 564.463L535.751 564.484L535.73 564.537Z" fill="#A0A2A5"/>
<path d="M541.984 472.399L541.979 472.343C542.113 472.329 542.198 472.323 542.229 472.322L542.232 472.378L541.984 472.399Z" fill="#A0A2A5"/>
<path d="M556.089 475.619L556.072 475.566C556.178 475.531 556.527 475.419 556.548 475.415L556.574 475.411L556.58 475.436C556.583 475.446 556.585 475.453 556.557 475.468V475.47C556.557 475.47 556.553 475.471 556.548 475.473C556.5 475.496 556.379 475.535 556.089 475.619Z" fill="#A0A2A5"/>
<path d="M591.798 431.74L591.743 431.726C591.744 431.724 591.744 431.722 591.745 431.719C591.746 431.713 591.748 431.707 591.749 431.701C591.769 431.625 591.794 431.516 591.83 431.369C591.834 431.351 591.839 431.333 591.843 431.315L591.893 431.108C591.894 431.104 591.895 431.1 591.896 431.096L591.951 431.109C591.926 431.212 591.904 431.302 591.886 431.381C591.855 431.502 591.827 431.621 591.798 431.74Z" fill="#A0A2A5"/>
<path d="M591.768 431.867L591.713 431.856C591.713 431.856 591.716 431.839 591.724 431.808L591.779 431.822C591.77 431.852 591.768 431.867 591.768 431.867Z" fill="#A0A2A5"/>
<path d="M542.198 477.993L542.196 477.937L542.232 477.935C542.471 477.924 542.57 477.919 542.586 477.919L542.588 477.975C542.549 477.978 542.508 477.98 542.468 477.982C542.395 477.986 542.3 477.99 542.198 477.993Z" fill="#A0A2A5"/>
<path d="M327.02 389.016L171.324 363.569L137.568 570.103L293.263 595.55L327.02 389.016Z" fill="#3B455A"/>
<g opacity="0.26">
<path d="M150.654 563.132L152.984 563.513L289.787 590.221L318.096 394.306L311.407 395.089L150.654 563.132Z" fill="#040909"/>
</g>
<path d="M318.092 394.31L178.102 371.43L146.87 562.514L286.861 585.395L318.092 394.31Z" fill="#F7F7F7"/>
<g opacity="0.05">
<path d="M177.462 370.574L278.153 387.029L163.531 454.81L177.462 370.574Z" fill="black"/>
</g>
<g opacity="0.12">
<path d="M278.655 386.828L217.856 376.891L216.929 382.565L277.728 392.502L278.655 386.828Z" fill="black"/>
</g>
<path d="M269.006 367.628L268.063 367.474L268.166 366.842C269.139 360.886 264.348 355.145 257.466 354.02L248.401 352.539C241.518 351.414 235.15 355.331 234.177 361.288L234.074 361.92L233.131 361.766C226.248 360.641 219.88 364.558 218.907 370.515L216.939 382.565L277.738 392.501L279.706 380.451C280.679 374.493 275.888 368.753 269.006 367.628ZM259.037 366.254L243.018 363.636C241.381 363.368 240.259 361.818 240.525 360.19C240.791 358.562 242.348 357.45 243.985 357.717L260.004 360.335C261.641 360.603 262.763 362.153 262.498 363.781C262.232 365.408 260.674 366.521 259.037 366.254Z" fill="#BEC6CC"/>
<g opacity="0.47">
<path d="M208.493 431.234C201.642 430.114 194.791 428.995 187.939 427.875C187.36 427.78 186.789 428.188 186.695 428.764C185.582 435.574 184.47 442.385 183.358 449.195C183.264 449.77 183.675 450.339 184.255 450.434C191.106 451.554 197.957 452.673 204.808 453.793C205.122 453.844 205.38 453.77 205.578 453.627C205.593 453.619 205.606 453.608 205.62 453.599C205.628 453.593 205.636 453.587 205.636 453.587C205.845 453.439 206.001 453.219 206.052 452.903C207.165 446.092 208.277 439.282 209.39 432.472C209.483 431.897 209.073 431.328 208.493 431.234ZM204.085 451.49C197.948 450.487 191.81 449.484 185.673 448.481C186.67 442.38 187.666 436.279 188.663 430.178C194.801 431.181 200.938 432.184 207.076 433.187C206.078 439.288 205.081 445.389 204.085 451.49Z" fill="#C0C4C9"/>
<path d="M202.322 469.011C195.471 467.891 188.62 466.772 181.769 465.652C181.19 465.557 180.619 465.965 180.525 466.541C179.413 473.352 178.3 480.162 177.188 486.973C177.094 487.548 177.505 488.117 178.085 488.212C184.936 489.332 191.787 490.451 198.638 491.571C198.952 491.622 199.21 491.548 199.409 491.405C199.424 491.396 199.437 491.386 199.451 491.377C199.459 491.371 199.467 491.365 199.474 491.359C199.676 491.217 199.831 490.997 199.883 490.682C200.995 483.872 202.108 477.061 203.22 470.251C203.313 469.674 202.902 469.105 202.322 469.011ZM197.914 489.267C191.777 488.264 185.639 487.261 179.501 486.258C180.498 480.157 181.494 474.056 182.491 467.955C188.629 468.958 194.766 469.961 200.903 470.964C199.907 477.065 198.911 483.166 197.914 489.267Z" fill="#C0C4C9"/>
<path d="M196.151 506.787C189.3 505.667 182.449 504.548 175.598 503.428C175.019 503.333 174.448 503.741 174.354 504.317C173.242 511.127 172.129 517.938 171.017 524.748C170.923 525.323 171.334 525.892 171.914 525.987C178.765 527.107 185.616 528.226 192.467 529.346C192.781 529.397 193.039 529.323 193.238 529.18C193.252 529.172 193.266 529.161 193.28 529.152C193.288 529.146 193.296 529.14 193.303 529.134C193.505 528.992 193.66 528.772 193.712 528.457C194.825 521.647 195.937 514.836 197.049 508.026C197.142 507.451 196.731 506.882 196.151 506.787ZM191.743 527.044C185.606 526.041 179.468 525.038 173.331 524.035C174.328 517.934 175.324 511.833 176.321 505.732C182.459 506.735 188.596 507.738 194.734 508.741C193.736 514.842 192.74 520.943 191.743 527.044Z" fill="#C0C4C9"/>
</g>
<path d="M193.599 436.737L198.579 435.943L200.436 441.068L225.648 428.582L228.188 429.532L198.449 446.636L193.599 436.737Z" fill="#D34E4E"/>
<path d="M185.559 475.191L190.539 474.398L192.396 479.523L217.608 467.036L220.148 467.987L190.409 485.091L185.559 475.191Z" fill="#D34E4E"/>
<path d="M179.29 510.876L184.27 510.083L186.127 515.208L211.34 502.721L213.879 503.672L184.14 520.776L179.29 510.876Z" fill="#D34E4E"/>
<g opacity="0.32">
<path d="M280.493 529.096L207.985 517.245L206.316 527.46L278.823 539.311L280.493 529.096Z" fill="#8EC3CB"/>
</g>
<g opacity="0.32">
<path d="M287.03 489.085L214.523 477.234L212.853 487.45L285.361 499.3L287.03 489.085Z" fill="#8EC3CB"/>
</g>
<g opacity="0.32">
<path d="M293.566 449.074L221.058 437.223L219.388 447.438L291.896 459.289L293.566 449.074Z" fill="#8EC3CB"/>
</g>
<path d="M809.052 506.603L738.457 523.733C712.35 530.068 686.11 514.289 679.848 488.49C673.586 462.691 689.673 436.641 715.78 430.306L786.197 413.219L809.052 506.603Z" fill="#E0E0E0"/>
<path d="M811.545 505.998L890.917 486.575C914.907 480.754 929.635 456.586 923.812 432.597L922.22 426.039C916.398 402.052 892.233 387.326 868.246 393.146L788.868 412.57L811.545 505.998Z" fill="#3B455A"/>
<path d="M769.907 458.559C763.928 460.01 757.949 461.461 751.97 462.911C751.41 463.047 750.85 463.183 750.29 463.319C749.246 459.016 748.201 454.713 747.157 450.41C746.633 448.251 746.109 446.092 745.585 443.933C745.41 443.214 744.645 442.752 743.915 442.929C740.199 443.831 736.483 444.732 732.767 445.634C732.039 445.811 731.568 446.57 731.743 447.292C733.177 453.201 734.611 459.109 736.045 465.017C736.179 465.57 736.314 466.124 736.448 466.677C732.094 467.734 727.74 468.79 723.385 469.847C721.2 470.377 719.016 470.907 716.831 471.437C716.103 471.614 715.632 472.373 715.807 473.095C716.698 476.767 717.59 480.439 718.481 484.111C718.58 484.519 718.809 484.791 719.094 484.949C719.369 485.136 719.727 485.218 720.151 485.115C726.13 483.664 732.109 482.213 738.088 480.763C738.648 480.627 739.208 480.491 739.768 480.355C740.812 484.658 741.857 488.961 742.901 493.264C743.425 495.423 743.949 497.582 744.473 499.741C744.648 500.46 745.413 500.922 746.143 500.745C749.859 499.843 753.575 498.942 757.291 498.04C757.704 497.94 757.98 497.712 758.141 497.429C758.332 497.156 758.416 496.801 758.315 496.382C756.881 490.474 755.447 484.565 754.013 478.657C753.879 478.104 753.744 477.55 753.61 476.997C757.964 475.941 762.319 474.884 766.673 473.827C768.858 473.297 771.042 472.767 773.227 472.237C773.955 472.06 774.426 471.301 774.251 470.579C773.36 466.907 772.468 463.235 771.577 459.563C771.402 458.843 770.637 458.382 769.907 458.559Z" fill="#3B455A"/>
<path d="M613.662 428.1L604.638 430.953L597.293 426.989L595.662 428.119L596.971 430.182L589.933 428.637L584.734 431.315L583.609 439.015L587.585 446.005L595.349 446.31L603.526 442.004L616.049 438.633L613.662 428.1Z" fill="#C1796B"/>
<path d="M605.988 428.726C620.004 425.439 634.019 422.153 648.035 418.866C651.808 417.981 655.72 417.791 659.493 416.878C665.01 415.543 666.52 415.078 667.295 409.817C669.542 394.57 666.687 378.75 668.99 363.731C674.525 363.181 679.869 361.869 685.52 361.944C694.747 362.066 693.947 368.413 694.466 375.485C695.081 383.872 695.448 392.286 695.506 400.696C695.554 407.666 697.854 437.893 687.616 440.104C680.279 441.712 606.342 445.649 606.374 447.165C606.362 446.555 605.988 428.726 605.988 428.726Z" fill="#474EBB"/>
<path d="M202.99 455.139C204.749 454.588 217.806 457.867 216.942 459.009C216 460.255 214.819 461.244 213.63 462.305C217.351 464.575 229.002 468.525 220.691 472.748C217.091 474.577 207.503 472.005 204.657 469.57C204.593 469.515 204.528 469.459 204.464 469.404L199.843 457.052C200.554 456.25 201.514 455.602 202.99 455.139Z" fill="#C1796B"/>
<path d="M147.955 419.253L199.785 456.894L199.844 457.052L204.465 469.404L205.665 472.613C177.751 468.995 175.325 461.576 148.977 450.183L147.955 419.253Z" fill="#8EC3CB"/>
</svg>
