<svg width="500" height="500" viewBox="0 0 500 500" fill="none" xmlns="http://www.w3.org/2000/svg">
<g filter="url(#filter0_d_22_583)">
<path opacity="0.42" d="M259.512 420.966C351.539 420.966 426.141 346.364 426.141 254.337C426.141 162.31 351.539 87.708 259.512 87.708C167.485 87.708 92.8831 162.31 92.8831 254.337C92.8831 346.364 167.485 420.966 259.512 420.966Z" fill="#33AA5B" class="bg-animate"/>
<path d="M399.483 123.434C397.751 121.895 396.189 120.212 393.377 120.918C394.922 120.261 396.235 119.81 397.426 119.142C397.881 118.887 398.368 118.072 398.278 117.625C398.179 117.133 397.486 116.496 396.962 116.396C392.575 115.557 388.235 113.177 383.689 115.799C383.613 115.843 383.471 115.771 383.384 115.758C383.327 115.706 383.25 115.669 383.251 115.632C383.265 112.923 382.263 112.332 379.766 113.315C376.667 114.534 373.546 115.745 370.345 116.638C367.856 117.333 365.714 118.236 364.477 120.654C363.649 122.273 362.741 123.852 361.886 125.458C360.572 127.93 358.473 129.079 355.726 129.158C355.26 129.171 354.791 129.174 354.328 129.225C349.955 129.704 345.593 130.374 341.207 130.64C333.433 131.111 326.265 133.094 319.686 137.461C317.275 139.061 314.247 139.866 311.391 140.626C308.69 141.345 305.85 141.561 303.061 141.918C302.592 141.978 302.065 141.64 301.573 141.463C300.762 141.173 299.912 140.52 299.157 140.619C293.458 141.368 287.787 142.335 282.089 143.094C275.405 143.985 268.707 144.775 262.007 145.533C257.929 145.994 253.799 146.096 249.761 146.769C247.059 147.219 244.478 148.388 241.769 149.26C240.802 148.867 239.552 148.36 238.203 147.813C238.299 147.513 238.469 147.142 238.534 146.753C239.116 143.292 240.347 139.782 240.113 136.375C239.592 128.812 237.57 121.484 234.862 114.384C234.451 113.306 233.762 112.334 233.31 111.51C233.31 110.621 233.415 109.866 233.293 109.149C232.617 105.196 230.579 102.761 226.23 102.998C226.06 103.007 225.886 102.9 225.713 102.898C222.259 102.868 218.776 102.567 215.364 102.933C213.5 103.133 211.513 104.157 210.009 105.35C205.846 108.653 202.051 112.286 199.282 117.001C195.541 123.372 195.63 129.887 197.32 136.718C198.39 141.042 200.569 144.623 203.922 147.48C204.732 148.17 205.918 149.037 206.799 148.91C209.598 148.506 210.222 150.234 210.832 152.26C211.152 153.324 211.69 154.322 212.012 155.385C212.143 155.818 212.1 156.414 211.898 156.817C211.338 157.932 210.654 158.985 209.957 160.167C207.351 158.9 204.98 159.807 203.147 161.895C201.194 164.12 199.428 166.533 197.778 168.996C194.743 173.528 191.914 178.197 188.87 182.723C187.753 184.383 186.27 185.796 185.125 187.124C183.283 185.383 181.707 183.916 180.157 182.42C179.102 181.401 178.002 180.412 177.065 179.29C173.151 174.604 169.281 169.88 165.421 165.149C164.831 164.426 164.068 163.647 163.918 162.799C163.444 160.129 161.697 158.199 160.426 155.978C159.621 154.571 158.352 153.305 158.826 151.322C159.37 149.045 159.668 146.703 159.962 144.375C160.081 143.431 160.205 142.278 159.778 141.535C159.394 140.865 158.261 140.625 157.4 140.164C160.138 131.831 163.167 123.445 165.627 114.895C168.102 106.294 170.01 97.529 172.224 88.604C175.931 89.615 179.558 88.522 183.043 86.806C183.241 86.663 183.465 86.231 183.81 85.948C192.158 79.125 196.66 70.207 198.174 59.655C198.826 55.107 198.893 50.608 196.565 46.447C196.244 45.872 195.994 45.347 195.95 44.825C195.947 44.821 195.944 44.818 195.942 44.815C195.745 44.56 195.565 44.294 195.392 44.024C195.35 44.052 195.313 44.078 195.269 44.107C191.682 37.334 186.422 33.369 178.431 33.822V33.696C178.155 33.697 177.879 33.701 177.604 33.708C177.496 33.883 177.374 34.018 177.222 34.088C171.245 36.832 166.938 41.397 163.363 46.713C160.359 51.18 158.687 56.196 157.242 61.391C155.703 66.923 156.547 71.933 158.755 76.961C159.231 78.045 159.586 79.182 160.019 80.353C160.169 80.381 160.814 80.304 161.017 80.568C163.489 83.772 166.501 86.316 170.275 88.188C169.626 90.654 169.017 93.03 168.376 95.397C166.874 100.936 165.454 106.499 163.823 112C161.246 120.692 158.54 129.346 155.823 137.996C155.665 138.499 154.957 139.11 154.449 139.166C153.219 139.302 152.48 139.905 152.093 140.974C151.543 142.494 151.079 144.045 150.544 145.69C150.365 145.64 150.092 145.569 149.821 145.489C147.27 144.728 145.755 145.558 144.943 148.117C144.829 148.475 144.61 148.934 144.311 149.077C142.634 149.877 142.482 151.368 142.399 152.935C142.372 153.443 142.375 154.038 142.118 154.434C140.398 157.088 141.999 160.09 141.2 162.836C141.135 163.058 141.478 163.489 141.733 163.701C143.828 165.445 145.93 167.182 148.066 168.876C149.324 169.874 150.776 170.658 151.91 171.773C153.483 173.318 155.129 174.914 156.227 176.791C158.264 180.271 159.961 183.953 161.738 187.581C165.86 195.994 170.349 204.171 177.02 210.897C179.854 213.754 182.856 216.329 187.34 216.21C188.766 216.172 190.686 215.728 191.465 217.846C191.557 218.096 192.301 218.157 192.754 218.214C195.225 218.527 197.348 217.509 199.427 216.387C200.986 215.546 202.513 214.646 204.371 213.593C204.242 216.101 204.202 218.208 204.013 220.301C203.531 225.616 202.779 230.915 202.525 236.24C202.318 240.583 201.683 244.739 199.848 248.697C197.769 253.18 197.171 257.824 198.799 262.564C200.606 267.826 202.409 273.02 202.444 278.738C202.459 281.188 202.396 283.488 201.596 285.78C200.169 289.873 198.586 293.921 197.38 298.078C196.092 302.519 195.106 307.051 194.102 311.568C193.505 314.253 192.729 316.993 192.77 319.697C192.807 322.165 192.069 324.305 191.364 326.506C188.988 333.926 186.326 341.261 184.166 348.742C182.872 353.223 182.446 357.947 181.377 362.502C180.561 365.977 179.197 369.321 178.342 372.788C176.302 381.06 176.736 389.454 177.508 397.828C177.774 400.709 177.854 403.382 175.555 405.611C174.82 406.324 174.409 407.374 173.864 408.279C171.504 412.198 169.299 416.22 166.756 420.015C163.558 424.787 160.948 429.617 161.529 435.663C161.981 440.367 162.505 444.995 164.882 449.214C166.112 451.398 167.213 452.058 169.745 451.763C172.712 451.417 175.492 450.556 177.759 448.517C181.457 445.191 184.89 441.625 185.838 436.496C186.316 433.909 186.411 431.25 186.664 428.622C187.056 424.555 187.729 420.601 190.328 417.221C191.685 415.456 192.854 413.546 194.117 411.709C196.264 408.587 197.713 405.389 195.927 401.515C195.514 400.618 195.369 399.311 195.701 398.414C196.451 396.39 197.423 394.408 198.577 392.581C201.822 387.444 203.748 381.939 203.832 375.824C203.839 375.33 204.032 374.771 204.312 374.359C205.629 372.418 206.854 370.383 208.388 368.624C217.755 357.888 225.573 346.065 233.207 333.923C233.432 333.923 233.896 333.925 234.36 333.923C235.585 333.916 236.371 333.838 236.611 332.114C237.104 328.579 238.11 325.115 238.908 321.605C239.014 321.855 239.122 322.171 239.276 322.464C241.313 326.357 243.299 330.279 245.428 334.121C246.216 335.543 247.468 336.568 249.295 336.432C250.873 336.314 252.451 336.103 254.028 336.108C254.587 336.11 255.46 336.491 255.651 336.932C257.086 340.257 258.387 343.64 259.777 347.121C258.763 347.272 257.966 347.39 257.189 347.505C254.278 343.329 250.468 342.915 245.425 344.263C242.097 345.153 240.289 347.368 240.256 350.913C240.248 351.731 240.126 352.553 240.006 353.365C239.16 359.103 238.628 364.876 236.726 370.444C235.816 373.109 235.441 376.053 235.361 378.886C235.196 384.768 237.332 390.167 239.686 395.425C240.611 397.49 242.197 399.158 244.657 399.499C245.992 399.684 247.346 399.761 248.694 399.812C251.2 399.908 252.204 399.423 253.027 397.092C254.078 394.113 255.1 391.076 255.652 387.978C256.73 381.927 257.5 375.819 258.315 369.724C258.403 369.063 258.155 368.129 257.708 367.662C255.688 365.55 253.482 363.613 251.487 361.479C251.091 361.055 251.07 359.937 251.32 359.319C251.977 357.692 253.077 356.231 253.627 354.579C254.214 352.814 254.381 350.909 254.728 349.065C256.225 348.953 257.725 348.737 259.216 348.79C259.781 348.81 260.592 349.341 260.828 349.852C261.588 351.499 262.075 353.269 262.769 354.949C265.602 361.81 267.156 369.4 273.671 374.237C273.174 374.188 272.703 374.12 272.333 373.89C267.961 371.171 263.616 368.41 259.229 365.715C258.728 365.407 258.022 365.434 257.411 365.306C257.706 365.868 257.865 366.608 258.322 366.959C259.761 368.066 261.282 369.075 262.826 370.035C265.855 371.917 268.769 374.093 272.014 375.487C275.198 376.854 278.726 377.435 282.123 378.282C282.837 378.46 283.691 378.463 284.387 378.246C286.286 377.653 288.243 377.094 289.962 376.137C291.024 375.546 292.188 374.369 292.458 373.25C294.282 365.681 294.142 357.974 293.313 350.307C292.532 343.083 291.453 335.887 290.342 328.704C290.153 327.482 290.937 327.373 291.427 326.834C292.076 326.121 293.104 325.483 293.276 324.667C293.544 323.391 293.331 321.979 293.144 320.65C292.448 315.712 291.77 310.768 290.918 305.855C289.394 297.062 287.84 288.273 286.114 279.518C285.322 275.499 283.98 271.591 283.088 267.587C281.89 262.213 280.604 256.835 279.857 251.39C278.493 241.45 277.438 231.466 276.37 221.488C275.739 215.598 275.097 209.692 274.886 203.778C274.692 198.337 275.001 192.873 275.239 187.426C275.304 185.946 275.701 184.396 276.308 183.041C277.865 179.564 281.123 177.998 284.362 176.601C289.425 174.416 294.518 172.276 299.7 170.398C303.245 169.114 304.888 166.801 304.918 163.152C304.919 163.049 305.016 162.946 305.207 162.571C310.751 161.692 316.442 160.505 322.195 159.962C327.427 159.468 332.291 158.385 336.81 155.561C341.228 152.8 345.813 150.294 350.417 147.851C354.192 145.848 358.083 144.06 361.961 142.259C364.848 140.918 367.783 139.963 371.122 140.311C373.042 140.511 375.149 140.189 376.993 139.57C380.711 138.323 384.313 136.727 387.952 135.247C389.743 134.519 391.558 133.82 393.265 132.924C393.981 132.548 394.448 131.697 395.029 131.061C395.739 130.598 396.721 130.439 397.683 130.203C400.268 129.568 400.481 128.89 398.74 126.84C398.876 126.737 398.997 126.61 399.145 126.536C401.342 125.447 401.301 125.048 399.483 123.434ZM177.302 86.902C176.565 86.097 175.867 85.337 175.024 84.417C175.812 83.727 176.59 83.046 177.513 82.238C178.16 83.028 178.745 83.742 179.422 84.567C178.842 85.207 178.112 86.01 177.302 86.902ZM175.352 61.822C175.949 62.627 176.526 63.406 177.204 64.32C176.783 64.699 176.044 65.365 175.242 66.088C174.51 65.316 173.877 64.65 173.121 63.853C173.921 63.125 174.56 62.544 175.352 61.822ZM172.627 63.253C171.794 62.459 171.093 61.791 170.277 61.012C171.091 60.342 171.833 59.731 172.595 59.104C173.277 59.828 173.905 60.496 174.724 61.366C174.135 61.895 173.479 62.486 172.627 63.253ZM175.836 61.472C176.79 60.662 177.561 60.008 178.489 59.221C179.187 59.978 179.829 60.676 180.523 61.428C179.743 62.143 178.981 62.84 178.229 63.529C177.448 62.858 176.724 62.236 175.836 61.472ZM178.188 64.66C178.945 65.487 179.666 66.275 180.487 67.172C179.715 67.826 179.02 68.415 178.045 69.241C177.377 68.399 176.717 67.567 175.919 66.56C176.655 65.945 177.359 65.355 178.188 64.66ZM178.653 64.245C179.524 63.43 180.314 62.691 181.157 61.903C182.084 62.894 182.834 63.695 183.722 64.645C182.84 65.352 182.01 66.017 181.067 66.773C180.233 65.9 179.487 65.119 178.653 64.245ZM179.168 58.77C180.167 57.897 181.032 57.141 182.111 56.197C182.717 56.966 183.254 57.647 183.92 58.491C183.143 59.174 182.247 59.962 181.275 60.817C180.562 60.124 179.919 59.5 179.168 58.77ZM178.591 58.123C177.933 57.362 177.305 56.635 176.574 55.79C177.323 55.09 178.118 54.347 179.008 53.515C179.805 54.243 180.523 54.898 181.415 55.712C180.422 56.56 179.584 57.275 178.591 58.123ZM177.939 58.709C177.149 59.366 176.353 60.026 175.365 60.847C174.631 60.012 174.025 59.324 173.43 58.647C175.76 55.969 175.767 55.969 177.939 58.709ZM172.723 57.929C171.917 57.166 171.178 56.467 170.308 55.643C171.208 54.886 171.943 54.268 172.775 53.568C173.572 54.318 174.282 54.987 175.148 55.802C174.319 56.529 173.558 57.196 172.723 57.929ZM172.155 58.398C171.251 59.119 170.535 59.691 169.717 60.343C168.938 59.637 168.222 58.989 167.401 58.245C168.199 57.518 168.882 56.896 169.75 56.106C170.5 56.821 171.228 57.515 172.155 58.398ZM171.733 64.044C171.025 64.625 170.173 65.326 169.249 66.084C168.585 65.258 167.946 64.464 167.259 63.61C167.833 63.079 168.673 62.299 169.681 61.365C170.362 62.254 170.992 63.077 171.733 64.044ZM172.655 64.341C173.301 65.034 173.92 65.699 174.693 66.528C173.784 67.291 172.914 68.022 171.882 68.888C171.179 68.217 170.495 67.564 169.714 66.818C170.758 65.939 171.639 65.197 172.655 64.341ZM175.179 67.213C175.942 67.977 176.661 68.698 177.569 69.608C176.572 70.394 175.713 71.072 174.726 71.85C173.987 71.074 173.281 70.332 172.501 69.512C173.431 68.713 174.264 67.998 175.179 67.213ZM178.114 70.17C178.919 71.031 179.664 71.829 180.545 72.772C179.665 73.549 178.854 74.265 177.891 75.115C177.074 74.23 176.308 73.399 175.397 72.412C176.403 71.581 177.204 70.921 178.114 70.17ZM178.618 69.762C179.41 69.131 180.167 68.528 180.972 67.887C181.767 68.736 182.537 69.558 183.39 70.469C182.737 71.034 181.957 71.709 181.105 72.446C180.279 71.554 179.495 70.708 178.618 69.762ZM181.537 67.35C182.537 66.586 183.358 65.958 184.318 65.224C185.153 66.107 185.936 66.935 186.848 67.9C185.905 68.608 185.042 69.255 184.209 69.88C183.314 69.032 182.519 68.279 181.537 67.35ZM181.846 61.429C182.749 60.623 183.647 59.819 184.664 58.911C185.577 59.781 186.44 60.603 187.421 61.536C186.373 62.462 185.429 63.296 184.449 64.162C183.542 63.211 182.717 62.344 181.846 61.429ZM182.533 55.842C183.52 55.031 184.321 54.374 185.221 53.634C185.863 54.308 186.44 54.913 187.127 55.634C186.348 56.344 185.591 57.034 184.675 57.869C183.995 57.225 183.346 56.61 182.533 55.842ZM182.05 55.176C181.292 54.416 180.602 53.725 179.767 52.889C180.62 52.161 181.45 51.452 182.245 50.774C182.982 51.492 183.767 52.257 184.672 53.139C183.685 53.905 182.862 54.545 182.05 55.176ZM178.975 52.485C178.26 51.633 177.592 50.837 176.853 49.956C177.496 49.257 178.255 48.432 179.008 47.613C179.99 48.533 180.779 49.272 181.6 50.04C180.733 50.848 179.927 51.599 178.975 52.485ZM178.073 53.311C177.461 53.846 176.682 54.528 175.755 55.338C174.974 54.607 174.229 53.91 173.546 53.271C174.344 52.374 175.063 51.565 175.898 50.626C176.597 51.488 177.273 52.323 178.073 53.311ZM172.783 52.418C172.137 51.856 171.536 51.332 170.742 50.641C171.709 49.818 172.606 49.054 173.645 48.17C174.334 48.913 174.842 49.46 175.439 50.104C174.522 50.904 173.698 51.622 172.783 52.418ZM172.037 53.147C171.342 53.719 170.597 54.332 169.698 55.071C169.159 54.329 168.66 53.643 168.091 52.86C168.63 52.415 169.373 51.8 170.276 51.053C170.888 51.781 171.409 52.4 172.037 53.147ZM168.94 55.736C168.389 56.215 167.623 56.881 166.741 57.647C166.026 57.009 165.431 56.477 164.704 55.828C165.562 55.04 166.313 54.35 167.305 53.439C167.847 54.201 168.347 54.903 168.94 55.736ZM166.759 58.723C167.569 59.476 168.278 60.135 169.11 60.908C168.094 61.72 167.199 62.434 166.198 63.233C165.506 62.573 164.849 61.946 164.027 61.162C164.957 60.332 165.834 59.549 166.759 58.723ZM166.301 64.418C167.024 65.183 167.688 65.885 168.508 66.751C167.752 67.394 167.026 68.011 166.185 68.726C165.365 67.953 164.588 67.221 163.662 66.348C164.731 65.566 165.473 65.023 166.301 64.418ZM166.257 69.962C166.842 70.606 167.41 71.231 168.135 72.031C167.281 72.744 166.574 73.335 165.629 74.124C164.984 73.453 164.366 72.81 163.648 72.063C164.577 71.314 165.336 70.703 166.257 69.962ZM166.74 69.476C167.567 68.713 168.285 68.052 169.054 67.342C169.839 68.061 170.476 68.644 171.226 69.329C170.361 70.065 169.613 70.7 168.608 71.555C168.007 70.886 167.432 70.246 166.74 69.476ZM171.79 69.996C172.462 70.868 173.087 71.679 173.782 72.581C173.172 73.089 172.295 73.821 171.352 74.607C170.659 73.782 170.031 73.035 169.287 72.15C170.134 71.42 170.909 70.753 171.79 69.996ZM174.826 72.816C175.495 73.521 176.06 74.113 176.62 74.711C176.815 74.919 176.995 75.141 177.286 75.477C176.308 76.317 175.393 77.103 174.342 78.005C173.529 77.095 172.768 76.244 171.88 75.25C172.883 74.422 173.768 73.691 174.826 72.816ZM177.855 76.076C178.618 76.899 179.314 77.648 180.187 78.588C179.339 79.394 178.387 80.299 177.316 81.317C176.448 80.401 175.733 79.646 174.83 78.692C175.858 77.805 176.835 76.959 177.855 76.076ZM178.57 75.603C179.35 74.906 180.189 74.155 181.058 73.377C181.849 74.161 182.533 74.84 183.284 75.586C182.431 76.386 181.634 77.133 180.724 77.986C180.02 77.206 179.366 76.483 178.57 75.603ZM181.615 73.123C184.196 70.522 184.196 70.522 186.124 73.049C185.37 73.729 184.61 74.415 183.728 75.21C182.973 74.464 182.293 73.793 181.615 73.123ZM184.672 70.546C185.596 69.814 186.443 69.143 187.424 68.366C188.026 68.934 188.599 69.473 189.324 70.156C188.405 70.972 187.566 71.718 186.604 72.574C185.901 71.836 185.346 71.254 184.672 70.546ZM184.924 64.774C185.893 63.909 186.869 63.039 187.935 62.088C188.96 62.993 189.904 63.826 190.97 64.768C186.891 67.764 187.898 68.328 184.924 64.774ZM188.367 61.549C189.342 60.69 190.126 59.998 191.032 59.2C191.978 60.078 193.027 61.051 194.183 62.124C193.263 62.943 192.45 63.667 191.524 64.493C190.453 63.493 189.466 62.574 188.367 61.549ZM188.166 61.043C187.236 60.039 186.423 59.162 185.516 58.183C186.085 57.65 186.871 56.913 187.759 56.081C188.663 56.945 189.491 57.738 190.436 58.641C189.564 59.564 188.852 60.317 188.166 61.043ZM185.784 53.163C186.902 52.294 187.811 51.587 188.896 50.743C189.34 51.383 189.756 51.984 190.309 52.782C189.675 53.37 188.809 54.174 187.816 55.095C187.152 54.463 186.539 53.881 185.784 53.163ZM189.604 50.226C190.349 49.543 191.018 48.93 191.82 48.195C192.292 48.619 192.746 49.027 193.374 49.591C192.477 50.253 191.632 50.876 190.698 51.566C190.553 51.388 190.127 50.867 189.604 50.226ZM186.275 46.675C186.976 46.017 187.681 45.357 188.509 44.581C189.498 45.62 190.433 46.602 191.363 47.578C189.122 49.928 189.122 49.928 186.275 46.675ZM188.212 50.296C187.312 51.005 186.361 51.753 185.364 52.539C184.562 51.622 183.838 50.794 183.11 49.961C183.82 49.3 184.732 48.45 185.724 47.526C186.417 48.297 187.259 49.235 188.212 50.296ZM182.148 49.39C181.32 48.608 180.606 47.934 179.621 47.003C180.668 46.274 181.662 45.582 182.787 44.799C183.256 45.201 184.043 45.876 185.018 46.712C183.975 47.685 183.093 48.509 182.148 49.39ZM179.049 46.405C178.684 45.891 178.294 45.341 177.825 44.681C178.498 44.115 179.323 43.421 180.258 42.634C180.763 43.014 181.248 43.378 181.974 43.924C180.952 44.791 180.054 45.552 179.049 46.405ZM178.652 47.046C177.75 47.903 176.975 48.64 176.069 49.5C175.454 48.857 174.916 48.296 174.322 47.674C175.257 46.932 176.07 46.287 177.079 45.486C177.636 46.038 178.08 46.479 178.652 47.046ZM173.699 47.055C173.159 46.558 172.629 46.07 171.981 45.473C172.871 44.708 173.649 44.039 174.533 43.28C175.169 43.881 175.662 44.347 176.281 44.933C175.398 45.658 174.612 46.305 173.699 47.055ZM172.901 47.776C172.049 48.47 171.191 49.168 170.179 49.993C169.691 49.534 169.215 49.085 168.742 48.64C171.322 45.684 171.37 45.674 172.901 47.776ZM169.547 50.489C168.703 51.216 168.009 51.813 167.191 52.518C166.717 52.066 166.279 51.647 165.73 51.124C166.541 50.415 167.269 49.777 168.051 49.093C168.551 49.56 168.965 49.946 169.547 50.489ZM166.609 52.95C165.725 53.711 164.906 54.416 164.017 55.182C163.586 54.81 163.206 54.483 162.688 54.037C163.55 53.227 164.331 52.493 165.185 51.69C165.664 52.113 166.082 52.483 166.609 52.95ZM166.006 58.171C165.171 58.899 164.347 59.618 163.202 60.616C162.595 59.856 162.127 59.268 161.659 58.681C163.606 56.123 163.901 56.071 166.006 58.171ZM163.402 61.466C164.161 62.28 164.786 62.949 165.556 63.775C164.709 64.435 163.949 65.029 163.12 65.675C162.418 65.047 161.779 64.475 160.925 63.71C161.772 62.943 162.543 62.245 163.402 61.466ZM163.136 66.867C163.952 67.698 164.679 68.439 165.556 69.333C164.673 70.065 163.921 70.688 163.198 71.287C162.308 70.486 161.466 69.728 160.506 68.864C161.476 68.127 162.289 67.51 163.136 66.867ZM164.98 74.575C164.39 75.116 163.894 75.571 163.326 76.092C162.616 75.412 161.968 74.791 161.217 74.072C161.952 73.458 162.473 73.021 163.071 72.522C163.74 73.241 164.317 73.862 164.98 74.575ZM165.56 75.355C166.334 76.098 167.038 76.774 167.812 77.517C167.29 77.947 166.805 78.347 166.122 78.91C165.431 78.262 164.74 77.615 163.88 76.809C164.584 76.199 165.104 75.749 165.56 75.355ZM166.324 74.689C167.081 74.046 167.776 73.456 168.666 72.699C169.369 73.456 170.041 74.18 170.84 75.04C169.944 75.751 169.267 76.288 168.471 76.92C167.77 76.192 167.107 75.503 166.324 74.689ZM171.367 75.656C172.226 76.658 173.003 77.564 173.838 78.537C172.893 79.334 172.231 79.893 171.496 80.513C170.701 79.581 169.956 78.707 169.083 77.684C169.828 77.023 170.541 76.39 171.367 75.656ZM174.253 79.202C175.101 80.064 175.863 80.837 176.766 81.755C175.967 82.453 175.229 83.098 174.329 83.884C173.562 82.999 172.861 82.191 172.057 81.264C172.841 80.528 173.542 79.87 174.253 79.202ZM178.057 81.696C178.877 80.897 179.744 80.052 180.676 79.143C181.329 79.95 181.962 80.73 182.535 81.438C181.94 82.184 181.152 83.171 180.223 84.336C179.403 83.337 178.796 82.597 178.057 81.696ZM181.05 85.484C181.097 84.132 182.41 82.768 183.907 82.149C184.023 82.273 184.139 82.396 184.254 82.52C183.253 83.446 182.251 84.373 181.05 85.484ZM183.406 80.986C182.628 80.146 181.994 79.462 181.2 78.604C182.106 77.772 182.978 76.971 183.93 76.098C184.725 76.845 185.436 77.513 186.247 78.275C185.27 79.206 184.396 80.041 183.406 80.986ZM186.762 78.147C185.841 77.157 185.21 76.479 184.381 75.587C185.288 74.857 186.213 74.113 187.015 73.467C187.933 72.495 188.796 71.582 189.739 70.584C190.433 71.236 190.974 71.744 191.799 72.519C190.119 74.397 188.483 76.224 186.762 78.147ZM192.296 71.869C192.064 71.855 191.831 71.842 191.599 71.828C191.182 71.124 190.765 70.42 190.479 69.936C189.608 69.356 188.829 68.837 187.797 68.15C189.152 67.107 190.274 66.244 191.433 65.353C192.031 65.857 192.545 66.292 193.06 66.726C193.143 66.659 193.225 66.592 193.307 66.525C192.918 66.022 192.528 65.518 192.06 64.913C192.888 64.154 193.725 63.387 194.767 62.433C194.993 62.993 195.371 63.454 195.269 63.748C194.325 66.472 193.299 69.167 192.296 71.869ZM194.52 61.602C193.408 60.552 192.39 59.591 191.33 58.59C191.534 58.095 191.728 57.624 192.071 56.79C191.482 57.308 191.146 57.603 190.777 57.928C190.019 57.132 189.271 56.345 188.627 55.669C189.223 55.045 189.849 54.39 190.479 53.731C192.214 55.151 194.025 56.491 195.645 58.032C196.493 58.837 195.807 60.761 194.52 61.602ZM195.997 57.626C194.373 55.761 192.975 54.156 191.509 52.473C192.239 51.684 192.905 50.963 193.567 50.247C196.386 51.905 196.817 53.113 195.997 57.626ZM196.277 51.382C196.191 51.42 196.106 51.459 196.02 51.497C194.897 50.205 193.775 48.913 192.609 47.571C193.029 47.188 193.452 46.803 194.176 46.143C194.927 48.015 195.602 49.699 196.277 51.382ZM192.64 44.531C193.685 45.615 193.6 46.424 191.96 47.017C191.062 46.045 190.131 45.037 189.147 43.971C189.591 43.376 189.965 42.873 190.482 42.181C191.248 43.018 191.927 43.791 192.64 44.531ZM188.017 40.414C188.63 40.737 189.15 41.238 189.894 41.807C189.507 42.314 189.149 42.783 188.558 43.557C187.904 42.804 187.368 42.32 187.012 41.727C186.8 41.375 186.871 40.854 186.815 40.409C187.221 40.401 187.703 40.249 188.017 40.414ZM187.83 44.094C187.16 44.688 186.436 45.332 185.556 46.113C184.781 45.442 184.001 44.766 183.048 43.941C183.884 43.149 184.656 42.417 185.494 41.623C186.299 42.474 187.032 43.25 187.83 44.094ZM185.075 41.003C184.15 41.846 183.381 42.546 182.482 43.366C181.991 42.979 181.511 42.601 180.893 42.115C181.849 41.241 182.689 40.472 183.612 39.629C184.094 40.081 184.507 40.469 185.075 41.003ZM180.385 36.874C181.239 37.585 182.051 38.263 183.007 39.059C182.056 39.919 181.251 40.647 180.529 41.299C179.697 40.756 178.948 40.268 178.098 39.714C178.888 38.733 179.573 37.883 180.385 36.874ZM177.394 40.198C178.211 40.844 178.883 41.377 179.692 42.017C178.745 42.833 177.878 43.58 176.957 44.374C176.338 43.845 175.767 43.358 175.02 42.719C175.852 41.836 176.567 41.076 177.394 40.198ZM176.787 39.86C176.044 40.568 175.303 41.274 174.486 42.053C173.58 41.354 172.85 40.791 172.109 40.22C174.117 38.273 175.05 38.181 176.787 39.86ZM164.589 47.98C166.656 45.538 168.642 43.028 170.748 40.44C171.989 41.306 172.83 41.893 173.897 42.636C171.814 44.519 169.964 46.192 168.066 47.908C167.489 47.56 166.93 47.223 166.372 46.886L166.158 47.134C166.494 47.554 166.831 47.974 167.298 48.557C166.64 49.152 165.97 49.759 165.286 50.377C164.036 49.801 163.576 49.176 164.589 47.98ZM163.262 50.065C163.727 50.396 164.071 50.64 164.587 51.007C163.733 51.818 162.99 52.523 162.248 53.228C162.136 53.153 162.023 53.078 161.911 53.003C162.336 52.075 162.763 51.148 163.262 50.065ZM161.754 54.358C162.47 54.947 162.859 55.266 163.441 55.744C162.448 56.536 161.65 57.173 160.853 57.809C160.671 57.69 160.488 57.57 160.306 57.451C160.758 56.484 161.211 55.518 161.754 54.358ZM158.574 64.156C159.002 62.47 159.307 61.02 159.79 59.632C159.863 59.422 160.841 59.315 161.264 59.49C161.817 59.719 162.235 60.275 162.92 60.874C161.423 62.005 160.201 62.927 158.574 64.156ZM159.8 64.161C160.047 64.196 160.294 64.231 160.541 64.267C161.071 64.887 161.601 65.506 162.348 66.379C161.458 66.914 160.537 67.502 159.561 67.978C159.493 68.011 158.722 67.153 158.791 66.815C158.98 65.9 159.445 65.042 159.8 64.161ZM159.686 69.603C160.524 70.395 161.354 71.18 162.285 72.06C161.821 72.446 161.303 72.877 160.739 73.347C158.531 71.311 158.414 70.725 159.686 69.603ZM160.129 74.882C160.285 74.763 160.44 74.645 160.596 74.526C161.27 75.144 161.945 75.761 162.755 76.504C162.289 76.898 161.937 77.196 161.485 77.579C160.966 76.548 160.548 75.715 160.129 74.882ZM162.011 78.464C162.443 78.074 162.838 77.717 163.265 77.331C163.948 78.063 164.565 78.724 165.338 79.552C164.963 79.86 164.53 80.216 163.962 80.682C163.301 79.93 162.705 79.254 162.011 78.464ZM164.834 81.233C165.275 80.881 165.709 80.533 166.097 80.223C167.032 81.093 167.879 81.881 168.835 82.77C167.708 83.952 167.088 83.693 164.834 81.233ZM166.756 79.689C167.321 79.152 167.847 78.652 168.449 78.08C169.314 79.075 170.105 79.983 171.014 81.028C170.434 81.493 169.946 81.885 169.324 82.384C168.488 81.507 167.692 80.671 166.756 79.689ZM169.997 83.107C170.587 82.612 171.074 82.203 171.674 81.7C173.194 83.444 174.235 85.591 176.867 86.678C173.863 87.411 172.493 86.612 169.997 83.107ZM249.6 398.268L244.275 397.923C244.287 397.77 244.298 397.617 244.31 397.464H249.631C249.62 397.732 249.61 398 249.6 398.268ZM251.925 365.403C253.415 366.432 255.01 367.168 256.054 368.378C256.809 369.254 256.832 370.761 257.227 372.143C254.996 371.331 253.226 370.687 251.239 369.963C251.463 368.47 251.702 366.878 251.925 365.403ZM251.537 370.933C253.372 371.845 256.017 371.466 256.865 374.392C255.019 373.998 253.362 373.788 251.829 373.234C251.343 373.059 251.187 371.969 250.879 371.297L251.537 370.933ZM254.713 349.032C253.678 348.921 253.646 349.659 253.366 350.412C252.304 353.273 251.101 356.082 249.951 358.91L249.19 358.594C250.537 355.201 251.883 351.808 253.406 347.972C252.75 348.783 252.118 349.269 251.886 349.902C250.72 353.091 249.34 356.257 248.712 359.56C248.443 360.974 249.823 362.698 250.437 364.288C250.693 364.952 251.041 365.618 251.114 366.307C251.363 368.676 249.941 370.514 248.895 372.442C247.641 371.734 247.652 371.488 249.145 370.563C248.933 370.296 248.726 370.035 248.465 369.707C248.855 369.541 249.22 369.386 249.585 369.23C248.079 368.654 247.088 369.354 246.426 370.493C245.896 371.404 246.795 373.403 248.07 373.784C248.729 373.981 249.621 373.395 250.355 373.178V377.887C250.198 377.984 250.041 378.081 249.883 378.178C249.618 377.755 249.353 377.332 249.097 376.925C248.404 377.086 247.744 377.239 247.083 377.392C247.031 377.187 246.978 376.982 246.926 376.776C247.762 376.529 248.599 376.282 249.433 376.036C249.375 375.94 249.298 375.764 249.268 375.771C248.28 376.019 247.291 376.266 246.329 376.593C246.27 376.613 246.348 377.573 246.515 377.628C247.714 378.017 248.943 378.348 250.187 378.523C250.369 378.549 250.84 377.67 250.898 377.176C251.013 376.205 250.932 375.211 250.932 373.89C252.733 374.283 254.282 374.536 255.765 375.002C256.146 375.122 256.317 375.91 256.666 376.537C254.744 376.183 253.252 375.908 251.76 375.633C251.718 375.795 251.676 375.956 251.635 376.118C252.978 377.037 255.359 375.994 256.42 378.301C254.474 378.064 252.953 377.878 251.432 377.693C251.405 377.859 251.377 378.025 251.35 378.191C252.085 378.309 252.819 378.43 253.554 378.543C256.238 378.954 256.393 379.24 255.434 381.806H250.296C250.228 381.282 250.155 380.726 250.032 379.78C249.806 380.597 249.673 381.078 249.54 381.558C249.464 381.562 249.388 381.565 249.312 381.569V379.772C249.149 379.757 248.986 379.742 248.824 379.727C248.754 380.628 248.684 381.528 248.614 382.429C248.455 382.432 248.295 382.435 248.136 382.437V380.448C247.381 380.78 246.434 380.901 246.256 381.336C245.866 382.292 245.551 383.495 245.815 384.425C245.996 385.062 247.204 385.407 247.953 385.883C248.082 385.771 248.211 385.66 248.341 385.548V388.585L248.724 388.618C248.796 387.518 248.868 386.418 248.94 385.319L249.347 385.363C249.233 386.241 249.119 387.12 249.004 387.998L249.48 388.075C249.646 386.952 249.812 385.83 249.998 384.574C251.537 384.47 253.093 384.364 254.928 384.24C253.994 388.979 253.172 393.624 250.777 398.044C248.792 396.154 246.566 396.29 244.574 396.822C242.851 397.282 241.98 396.516 241.455 395.395C238.884 389.904 236.405 384.255 236.92 378.068C237.248 374.13 238.761 370.306 239.479 366.383C240.365 361.539 241.069 356.657 241.682 351.77C242.26 347.164 243.82 345.511 248.504 345.152C251.142 344.95 253.721 345.021 255.374 347.637C255.168 348.071 254.941 348.551 254.713 349.032ZM255.137 383.1C254.89 383.284 254.65 383.617 254.396 383.626C253.012 383.678 251.625 383.651 249.958 383.651C250.138 383.213 250.232 382.688 250.377 382.674C251.754 382.54 253.138 382.463 254.521 382.451C254.725 382.45 254.932 382.873 255.137 383.1ZM198.709 133.555C198.522 133.529 198.336 133.503 198.149 133.477C198.083 131.155 197.891 128.829 197.977 126.513C198.159 121.586 200.415 117.508 203.649 113.961C205.654 111.762 207.859 109.747 209.984 107.659C212.579 105.11 215.776 104.167 219.319 104.328C222.063 104.453 224.811 104.629 227.536 104.957C230.2 105.277 231.004 106.353 231.178 108.886C227.298 109.37 223.44 109.823 219.592 110.346C218.259 110.527 216.955 111.066 215.627 111.11C213.753 111.172 212.867 112.131 212.098 113.709C209.95 118.114 207.548 122.396 205.465 126.83C204.925 127.979 205.189 129.505 205.07 131.039C202.647 130.548 200.154 130.692 198.709 133.555ZM201.294 141.674C202.91 142.249 204.762 142.571 206.2 143.521C207.432 144.335 208.189 145.868 209.31 147.275C206.098 148.47 203.434 145.414 201.294 141.674ZM209.817 145.179C209.035 143.155 207.772 141.907 205.528 141.506C203.257 141.1 201.407 139.842 200.233 137.772C199.34 136.196 199.649 134.647 200.688 133.323C201.646 132.1 203.034 131.739 204.49 132.396C205.002 132.627 205.485 133.15 205.746 133.659C206.251 134.647 206.488 135.779 207.043 136.732C207.294 137.162 208.038 137.305 208.558 137.579C208.609 137.061 208.817 136.497 208.684 136.031C208.095 133.966 207.393 131.934 206.761 129.881C206.295 128.368 207.123 127.199 207.795 125.95C209.487 122.805 211.404 119.729 212.643 116.407C213.614 113.8 215.089 112.471 217.709 112.14C220.968 111.728 224.216 111.192 227.486 110.905C230.317 110.657 232.154 111.901 233.125 114.581C235.626 121.489 237.643 128.53 238.476 135.856C238.918 139.748 237.69 143.414 236.623 147.063C236.397 147.837 235.485 148.568 234.711 148.997C230.472 151.34 226.051 151.608 221.749 149.336C219.026 147.898 216.552 145.994 213.947 144.328C213.433 144 212.832 143.807 212.129 143.818C214.765 147.82 218.673 150.034 222.934 151.627C227.43 153.308 231.808 152.634 235.958 150.264C236.537 154.814 230.637 162.147 223.034 161.323C221.55 157.41 218.607 153.481 216.9 153.607C218.548 156.268 220.067 158.719 221.731 161.406C219.975 160.909 218.339 160.639 216.891 159.964C216.039 159.567 215.219 158.643 214.844 157.761C213.076 153.606 211.444 149.392 209.817 145.179ZM152.138 147.147C152.379 145.155 153.182 143.229 153.783 141.285C153.833 141.123 154.135 141.039 154.529 140.784C154.497 142.526 154.877 143.437 156.562 142.115C156.921 141.833 157.692 142.074 158.625 142.074C158.17 145.843 157.729 149.501 157.294 153.109C155.981 152.335 154.36 151.736 153.271 150.618C152.492 149.817 152.003 148.27 152.138 147.147ZM147.943 147.025C149.335 146.721 150.56 147.48 150.606 148.872C150.631 149.641 150.171 150.414 150.047 151.204C149.923 151.995 149.851 152.819 149.941 153.607C149.993 154.057 150.413 154.465 150.668 154.893C150.502 155.002 150.335 155.112 150.169 155.221C148.964 153.354 147.603 151.564 146.62 149.586C146.134 148.608 146.465 147.348 147.943 147.025ZM144.963 150.637C145.271 151.028 145.532 151.359 145.793 151.69C147.132 153.385 148.465 155.084 149.811 156.773C150.76 157.963 151.469 159.224 151.337 160.841C146.549 160.492 142.651 154.328 144.963 150.637ZM148.653 167.358C146.271 165.854 143.753 164.51 142.498 161.486C144.662 162.853 146.495 164.005 148.32 165.168C149.186 165.719 149.591 166.377 148.653 167.358ZM148.297 163.412C145.94 162.845 143.233 159.43 143.043 157.126C145.167 159.005 147.307 160.899 149.653 162.975C149.389 163.068 148.774 163.527 148.297 163.412ZM150.511 167.815C150.816 166.078 151.103 164.44 151.391 162.802C151.411 162.691 151.405 162.507 151.464 162.481C154.032 161.381 152.892 159.494 152.363 157.681C153.719 157.471 154.135 158.289 154.232 159.243C154.344 160.34 154.268 161.457 154.254 162.566C154.242 163.502 154.099 164.448 154.195 165.371C154.516 168.434 153.612 169.114 150.511 167.815ZM177.949 209.394C171.833 202.965 167.585 195.371 163.683 187.525C161.62 183.378 159.668 179.164 157.365 175.153C156.318 173.33 154.54 171.927 153.023 170.255C153.895 169.903 154.803 169.537 155.765 169.149C156.16 169.746 156.561 170.352 157.091 171.154C157.961 169.779 157.493 168.635 156.942 167.732C156.031 166.24 155.759 164.712 155.931 163.033C156.003 162.332 156.06 161.627 156.063 160.924C156.071 158.997 155.701 157.323 154.047 155.942C152.866 154.956 151.201 154.019 151.368 151.574C152.39 152.002 153.183 152.274 153.919 152.657C155.06 153.251 156.18 153.891 157.271 154.573C157.689 154.835 158.075 155.215 158.351 155.626C159.299 157.038 160.215 158.474 161.093 159.931C161.449 160.522 161.665 161.196 161.96 161.825C162.641 163.279 163.088 164.923 164.06 166.148C168.143 171.293 172.373 176.321 176.577 181.369C177.25 182.177 177.963 183.019 178.827 183.589C183.483 186.66 185.474 191.188 186.342 196.491C187.138 201.348 188.192 206.163 189.161 210.991C189.389 212.129 189.733 213.244 190.024 214.369C184.991 215.087 181.288 212.904 177.949 209.394ZM180.254 420.926C177.826 420.066 175.428 419.216 172.995 418.355C173.559 417.225 174.153 416.038 174.885 414.571C177.151 415.496 179.441 416.43 181.721 417.361C181.145 418.763 180.685 419.88 180.254 420.926ZM181.01 424.366C177.629 422.977 174.414 421.657 171.171 420.324C172.789 419.07 177.943 420.101 179.93 422.239C180.353 422.694 182.161 423.23 181.01 424.366ZM175.211 413.635C179.151 412.746 183.049 414.373 184.91 418.042C181.434 416.462 178.321 415.048 175.211 413.635ZM184.558 415.131C182.181 414.042 179.727 412.919 177.134 411.731C178.268 407.355 180.149 406.418 184.76 408.213C184.827 409.227 184.898 410.293 184.968 411.359C185.086 411.36 185.203 411.36 185.321 411.361V408.476C185.875 408.67 186.368 408.843 187.155 409.119C186.217 411.292 185.328 413.349 184.558 415.131ZM165.973 447.523C167.501 448.389 168.93 449.199 170.286 449.968C167.91 450.69 167.125 450.284 165.973 447.523ZM164.471 443.81C167.338 446.785 170.179 449.092 174.631 448.371C171.72 450.76 165.392 447.856 164.471 443.81ZM194.254 408.213C192.769 410.668 191.261 413.126 189.543 415.418C186.565 419.39 185.408 423.901 185.118 428.734C185.027 430.257 184.873 431.776 184.798 433.299C184.502 439.322 180.831 443.413 176.757 447.239C176.275 447.691 175.363 447.878 174.657 447.865C171.446 447.804 168.746 446.602 166.216 444.526C162.798 441.721 163.456 437.939 163.171 434.348C162.79 429.546 165.079 425.674 167.522 421.804C170.839 416.547 173.971 411.173 177.19 405.854C177.398 405.511 177.667 405.204 178.316 404.935C178.267 405.606 178.339 406.317 178.138 406.939C177.859 407.804 177.317 408.581 176.992 409.435C176.464 410.824 176.207 412.326 174.21 412.491C173.815 412.524 173.131 413.747 173.236 414.296C173.638 416.391 172.994 417.399 171.093 418.292C170.312 418.659 169.389 420.177 169.584 420.875C169.982 422.293 169.535 423.377 169.084 424.524C169.509 423.911 169.917 423.282 170.404 422.723C170.758 422.317 171.425 421.674 171.692 421.782C174.443 422.89 177.226 423.976 179.808 425.412C180.763 425.943 181.525 426.514 182.45 425.92C183.015 425.557 183.739 424.641 183.615 424.186C183.409 423.432 182.583 422.843 182 422.201C181.891 422.081 181.699 422.036 181.396 421.879C181.897 420.899 182.39 419.938 182.674 419.381C184.103 419.088 185.629 419.223 186.158 418.561C186.921 417.607 186.608 416.192 185.12 415.518C185.482 414.61 185.619 413.882 186.845 413.502C187.594 413.27 187.927 411.67 188.429 410.676C188.585 410.366 188.604 409.819 188.823 409.735C191.92 408.538 192.352 405.433 193.714 403C193.883 402.699 194.013 402.376 194.252 401.871C195.375 404.135 195.457 406.224 194.254 408.213ZM227.968 339.135C224.36 344.473 220.894 349.917 217.087 355.11C212.583 361.255 207.835 367.225 203.072 373.175C201.761 374.812 202.192 376.654 202.053 378.341C201.67 383.003 199.663 386.954 197.599 391.001C195.291 395.525 193.293 400.215 191.341 404.908C190.297 407.418 188.819 408.102 186.284 407.104C184.41 406.366 182.386 406.009 180.457 405.489C180.264 404.16 180.022 402.542 179.795 400.921C179.397 398.093 178.795 395.274 178.654 392.433C178.189 383.094 179.187 373.98 182.342 365.054C183.869 360.733 184.019 355.945 185.285 351.509C187.65 343.226 190.376 335.046 192.95 326.823C193.195 326.039 193.384 325.233 193.695 324.477C193.809 324.2 194.2 324.036 194.464 323.821C194.536 324.123 194.725 324.452 194.661 324.722C194.251 326.464 193.786 328.192 193.339 329.925L193.763 330.053C194.376 328.201 194.989 326.348 195.645 324.366C196.11 324.415 196.605 324.467 197.33 324.544C196.546 326.929 195.812 329.165 195.077 331.401C195.239 331.458 195.401 331.516 195.564 331.573C196.359 329.37 197.155 327.166 198.067 324.64C209.06 327.538 220.199 330.475 231.709 333.509C230.36 335.541 229.177 337.347 227.968 339.135ZM291.956 366.63C291.774 368.612 291.369 370.575 291.028 372.541C290.95 372.989 290.806 373.48 290.536 373.83C289.374 375.337 283.696 377.151 281.908 376.499C276.17 374.406 271.214 371.288 268.749 365.37C266.426 359.792 264.278 354.142 262.056 348.522C260.442 344.44 258.833 340.356 257.156 336.106C257.437 336.041 257.601 335.969 257.764 335.97C261.07 335.998 264.243 335.388 267.459 334.56C271.298 333.571 275.304 333.229 279.334 332.592C280.53 336.321 281.766 340.178 283.003 344.035C283.154 343.991 283.305 343.946 283.456 343.902C282.321 340.068 281.185 336.233 280.038 332.357C281.818 331.719 283.388 331.157 284.895 330.617C286.918 337.035 288.92 343.277 290.849 349.541C292.575 355.138 292.485 360.881 291.956 366.63ZM290.706 342.294L290.04 342.506C289.192 338.543 288.314 334.586 287.535 330.609C287.439 330.117 287.868 329.523 288.054 328.976L288.679 329.071C288.973 331.3 289.23 333.534 289.571 335.755C289.905 337.942 290.324 340.115 290.706 342.294ZM302.411 166.129C302.358 166.722 301.672 167.514 301.085 167.764C295.476 170.16 289.811 172.425 284.192 174.797C280.26 176.456 276.424 178.352 274.579 182.541C273.914 184.051 273.467 185.775 273.414 187.417C273.199 194.039 272.928 200.676 273.163 207.289C273.354 212.67 274.22 218.029 274.819 223.395C275.854 232.667 276.866 241.942 278.005 251.202C278.226 252.998 278.947 254.739 279.495 256.488C279.541 256.635 279.569 256.77 279.591 256.901C280.331 258.112 280.483 259.731 280.058 261.213C281.645 267.649 283.356 273.966 284.663 280.362C286.47 289.207 287.962 298.118 289.5 307.017C290.289 311.581 290.893 316.177 291.567 320.761C291.933 323.246 291.67 325.462 288.792 326.612C285.392 319.383 284.231 311.582 282.852 303.986C284.143 303.268 285.298 302.626 286.452 301.983C286.365 301.812 286.278 301.64 286.191 301.469C285.077 301.971 283.964 302.474 282.681 303.053C282.48 302.014 282.341 301.215 282.17 300.422C279.859 289.699 277.949 278.917 277.31 267.943C277.247 266.858 277.155 265.771 277.025 264.69C276.586 264.867 276.104 264.992 275.577 265.051C277.316 286.38 281.152 307.224 286.948 327.886C286.682 328.024 286.128 328.312 285.17 328.809C283.679 323.8 281.943 319.009 280.845 314.077C277.877 300.737 275.975 287.215 274.616 273.618C274.342 270.875 274.051 268.13 273.753 265.3C273.201 265.384 272.651 265.481 272.104 265.588C273.392 275.915 274.573 286.146 276.058 296.327C277.681 307.455 279.484 318.574 283.881 329.1C279.371 331.18 274.695 331.71 270.095 332.512C266.487 333.141 262.86 333.661 259.241 334.222C259.011 334.258 258.772 334.228 258.537 334.242C255.659 334.418 252.776 334.535 249.907 334.803C248.574 334.928 247.574 334.54 246.874 333.477C243.773 328.76 241.042 323.861 239.522 318.26H240.783C238.444 315.888 233.541 312.962 231.853 313.375C233.125 314.158 234.32 315.135 235.689 315.672C237.19 316.261 237.584 317.117 237.338 318.601C236.698 322.459 236.105 326.326 235.545 330.196C235.283 332.006 234.041 332.112 232.7 331.871C230.738 331.518 228.787 331.081 226.86 330.57C218.82 328.439 210.791 326.268 202.728 324.103C204.376 318.524 206.148 312.893 207.695 307.201C209.531 300.441 211.323 293.662 212.097 286.676C212.078 286.688 212.058 286.698 212.039 286.71C211.581 287 211.126 287.198 210.68 287.327C210.587 287.937 210.482 288.543 210.354 289.144C209.043 295.312 207.672 301.472 206.109 307.58C204.963 312.059 203.518 316.465 202.122 320.877C201.094 324.126 201.034 324.107 197.644 323.05C200.909 314.44 203.076 305.519 205.101 296.563C205.835 293.318 206.595 290.067 207.138 286.789C206.587 286.43 206.104 285.958 205.714 285.409C203.528 298.132 200.7 310.577 196.33 322.552C194.75 322.682 194.16 321.946 194.284 320.804C194.531 318.54 194.876 316.283 195.284 314.042C197.126 303.917 200.15 294.126 203.824 284.533C203.987 284.106 204.361 283.761 204.822 283.462C204.647 282.758 204.606 282.022 204.734 281.305C204.077 277.021 203.537 272.889 202.742 268.812C202.331 266.7 201.511 264.647 200.703 262.638C198.94 258.251 199.516 253.995 201.292 249.815C203.054 245.668 204.037 241.411 204.262 236.877C204.553 231.027 205.369 225.206 205.778 219.36C205.969 216.627 205.932 213.844 205.659 211.118C204.863 203.174 203.897 195.247 202.997 187.314C202.831 185.849 202.829 185.849 201.458 185.68C201.784 190.251 202.025 194.791 202.457 199.313C202.813 203.046 203.43 206.754 203.832 210.484C203.884 210.966 203.472 211.746 203.046 211.989C200.509 213.439 197.951 214.869 195.309 216.111C193.369 217.023 192.448 216.602 191.968 214.542C190.809 209.571 189.827 204.56 188.757 199.569C188.093 196.469 187.417 193.372 186.711 190.282C186.373 188.806 186.776 187.727 187.704 186.445C191.482 181.221 195.032 175.833 198.673 170.509C200.615 167.669 202.068 164.463 205.045 162.413C207.498 160.724 209.916 160.894 211.941 163.04C212.213 163.328 212.554 163.551 213.028 163.939C214.082 161.93 210.663 160.15 212.868 158.356C214.528 161.645 217.8 162.2 220.868 162.767C228.745 164.223 235.459 160.134 237.7 152.456C237.94 151.634 238.006 150.762 238.148 149.942C241.085 148.94 239.379 152.583 241.018 152.799C243.489 149.98 246.585 148.718 250.225 148.388C258.284 147.658 266.349 146.941 274.379 145.953C282.411 144.965 290.409 143.69 298.409 142.456C300.342 142.158 300.879 143.362 301.085 144.712C301.747 149.045 302.427 153.388 302.762 157.753C302.977 160.52 302.661 163.344 302.411 166.129ZM397.817 128.47C394.48 129.144 391.596 129.735 388.708 130.306C387.442 130.556 386.151 130.7 384.907 131.027C384.514 131.13 384.236 131.671 383.905 132.011C384.357 132.201 384.844 132.608 385.255 132.542C387.045 132.256 388.813 131.831 390.59 131.46C391.018 131.371 391.448 131.294 392.054 131.544C391.797 131.752 391.572 132.042 391.278 132.157C386.096 134.192 380.928 136.27 375.7 138.179C374.423 138.645 372.884 138.869 371.56 138.645C367.678 137.987 364.257 139.165 360.891 140.798C355.777 143.278 350.611 145.658 345.579 148.294C341.383 150.492 337.255 152.854 333.27 155.413C330.138 157.425 326.694 157.65 323.206 158.131C317.583 158.906 311.99 159.902 306.384 160.804C305.891 160.883 305.397 160.956 304.904 161.031C304.84 160.867 304.776 160.703 304.712 160.539C305.398 160.189 306.084 159.839 307.069 159.337C306.14 159.438 305.517 159.506 304.894 159.574C304.664 159.308 304.434 159.041 304.204 158.774C304.809 158.619 305.415 158.464 305.63 158.409C305.253 157.89 304.788 157.539 304.738 157.137C304.203 152.789 303.734 148.434 303.209 143.745C305.179 143.413 307.496 142.88 309.843 142.658C314.089 142.256 317.939 140.888 321.457 138.501C328.068 134.015 335.574 132.784 343.349 132.319C347.964 132.043 352.562 131.422 357.154 130.841C360.282 130.445 362.274 128.441 363.686 125.753C364.478 124.246 365.139 122.627 366.173 121.305C366.995 120.255 368.174 119.274 369.403 118.792C373.037 117.365 376.773 116.198 380.472 114.937C380.736 114.847 381.02 114.811 381.566 115.025C381.109 115.576 380.57 116.078 380.211 116.687C378.919 118.878 377.144 120.472 374.827 121.544C373.338 122.232 372.229 123.041 372.108 125.146C371.959 127.722 370.641 130.059 368.622 131.866C367.951 132.467 367.355 133.153 366.725 133.8C366.815 133.971 366.906 134.142 366.996 134.313C367.53 134.19 368.179 134.221 368.581 133.921C371.498 131.745 373.738 129.171 373.51 125.18C373.489 124.813 373.988 124.257 374.383 124.051C377.171 122.595 379.217 120.139 381.719 118.455C384.035 116.895 387.017 115.439 390.315 116.597C392.156 117.243 394.136 117.491 396.054 117.919C396.064 118.086 396.074 118.252 396.084 118.419C391.42 118.865 386.883 119.737 382.918 122.332C382.538 122.581 382.477 123.317 382.269 123.828L382.596 124.318C384.441 123.723 386.25 122.839 388.14 122.605C390.534 122.308 393.021 122.331 395.412 122.642C396.448 122.777 397.345 123.977 398.524 124.856C395.707 125.087 393.24 125.231 390.789 125.508C388.422 125.776 386.144 126.368 384.226 127.956C388.651 128.174 393.043 126.215 397.817 128.47Z" fill="#F5FFFA"/>
<path d="M216.931 165.315C227.59 167.468 235.283 163.726 239.865 153.799C240.019 153.885 240.173 153.97 240.328 154.056C240.373 154.467 240.585 154.954 240.438 155.278C238.363 159.858 235.769 163.999 230.72 165.827C226.62 167.311 222.389 167.57 218.105 166.895C217.648 166.823 217.26 166.32 216.839 166.018C216.869 165.783 216.9 165.549 216.931 165.315Z" fill="#F5FFFA"/>
<path d="M263.915 162.967C264.166 163.404 264.585 163.821 264.641 164.283C265.315 169.821 266.32 175.273 268.605 180.412C269.038 181.385 269.538 182.329 270.094 183.463C266.588 182.363 262.946 167.776 263.915 162.967Z" fill="#F5FFFA"/>
<path d="M205.222 254.213C211.653 257.427 218.085 260.642 224.516 263.856C224.446 263.996 224.376 264.136 224.306 264.276C222.12 264.187 205.627 255.951 205.222 254.213Z" fill="#F5FFFA"/>
<path d="M222.681 268.32C214.825 266.571 208.39 262.257 202.48 257.029C202.598 256.834 202.716 256.64 202.834 256.445C205.988 258.631 209.039 260.991 212.326 262.956C215.656 264.947 219.22 266.548 222.681 268.32Z" fill="#F5FFFA"/>
<path d="M271.842 239.197C268.121 243.622 264.482 247.549 259.871 250.844C260.24 249.436 270.506 239.19 271.842 239.197Z" fill="#F5FFFA"/>
<path d="M260.098 245.805C261.161 244.796 261.967 244.154 262.623 243.384C265.006 240.589 267.324 237.737 269.712 234.946C269.98 234.633 270.54 234.568 270.964 234.388C271.023 234.745 271.265 235.277 271.115 235.433C267.775 238.915 264.393 242.356 261.011 245.797C260.959 245.851 260.807 245.805 260.098 245.805Z" fill="#F5FFFA"/>
<path d="M270.365 180.072C268.812 175.415 268.42 170.644 268.868 165.55C269.665 166.199 269.657 166.2 269.902 170.202C270.005 171.899 270.096 173.6 270.287 175.288C270.465 176.86 270.767 178.418 271.014 179.982C270.798 180.012 270.581 180.042 270.365 180.072Z" fill="#F5FFFA"/>
<path d="M199.511 203.792C197.994 199.374 196.477 194.957 194.855 190.235C196.39 190.643 199.979 200.896 200.049 203.621C199.87 203.678 199.69 203.735 199.511 203.792Z" fill="#F5FFFA"/>
<path d="M209.74 220.299C210.887 224.542 208.786 239.535 206.216 245.254C208.324 237.07 209.87 228.812 209.74 220.299Z" fill="#F5FFFA"/>
<path d="M194.445 196.915C196.282 201.289 197.944 205.245 199.605 209.201C197.519 208.111 193.754 199.178 194.445 196.915Z" fill="#F5FFFA"/>
<path d="M295.832 146.164C289.355 147.542 282.878 148.92 276.401 150.297C276.36 150.112 276.318 149.927 276.277 149.742C282.728 148.334 289.179 146.926 295.631 145.519C295.698 145.734 295.765 145.949 295.832 146.164Z" fill="#F5FFFA"/>
<path d="M235.361 257.55C242.096 253.904 248.975 250.181 255.874 246.447C254.799 248.124 236.541 257.775 235.361 257.55Z" fill="#F5FFFA"/>
<path d="M210.444 245.157C211.026 238.263 211.607 231.369 212.189 224.475C212.376 224.491 212.562 224.506 212.749 224.522C212.171 231.417 211.594 238.311 211.016 245.206C210.825 245.19 210.634 245.173 210.444 245.157Z" fill="#F5FFFA"/>
<path d="M254.624 250.557C249.972 253.619 245.319 256.68 240.667 259.742C240.553 259.562 240.439 259.382 240.324 259.202C245.018 256.204 249.712 253.207 254.405 250.209C254.478 250.325 254.551 250.441 254.624 250.557Z" fill="#F5FFFA"/>
<path d="M296.909 161.721C292.334 163.974 287.758 166.227 283.183 168.48C283.1 168.318 283.018 168.156 282.935 167.994C287.478 165.728 292.02 163.462 296.563 161.196C296.679 161.371 296.794 161.546 296.909 161.721Z" fill="#F5FFFA"/>
<path d="M285.201 169.054C289.135 167.353 293.07 165.652 297.004 163.952C297.098 164.171 297.193 164.39 297.287 164.609C293.337 166.257 289.387 167.906 285.437 169.554C285.358 169.388 285.28 169.221 285.201 169.054Z" fill="#F5FFFA"/>
<path d="M268.931 192.019C268.931 195.918 268.931 199.817 268.931 203.716C268.171 199.834 267.861 195.939 268.378 192.028C268.562 192.025 268.747 192.022 268.931 192.019Z" fill="#F5FFFA"/>
<path d="M293.654 149.215C289.696 150.169 285.737 151.122 281.779 152.076C281.733 151.892 281.687 151.709 281.641 151.525C285.582 150.53 289.523 149.536 293.465 148.541C293.528 148.766 293.591 148.991 293.654 149.215Z" fill="#F5FFFA"/>
<path d="M204.62 165.887C202.31 169.241 200 172.594 197.734 175.884C197.687 174.518 202.045 167.749 204.62 165.887Z" fill="#F5FFFA"/>
<path d="M274.76 255.014C274.76 251.803 274.76 248.592 274.76 245.381C274.805 245.372 274.849 245.363 274.894 245.354C275.129 248.545 275.364 251.736 275.599 254.928C275.319 254.956 275.04 254.985 274.76 255.014Z" fill="#F5FFFA"/>
<path d="M248.869 151.423C252.137 150.752 255.406 150.08 258.674 149.409C258.712 149.58 258.75 149.751 258.787 149.922C255.537 150.682 252.286 151.443 249.036 152.203C248.981 151.943 248.925 151.683 248.869 151.423Z" fill="#F5FFFA"/>
<path d="M210.535 276.057C209.61 272.526 208.685 268.994 207.759 265.463L207.201 265.644L210.063 276.312C210.221 276.228 210.376 276.139 210.535 276.057Z" fill="#F5FFFA"/>
<path d="M204.467 167.845C203.591 171.16 201.283 173.537 199.008 175.936C200.828 173.239 202.647 170.542 204.467 167.845Z" fill="#F5FFFA"/>
<path d="M208.924 276.926C208.096 274.129 207.269 271.332 206.441 268.535C206.236 268.586 206.031 268.637 205.827 268.688C206.721 271.514 207.616 274.339 208.51 277.165C208.648 277.084 208.786 277.004 208.924 276.926Z" fill="#F5FFFA"/>
<path d="M249.47 153.211C251.916 152.614 254.363 152.018 256.809 151.421C256.855 151.585 256.9 151.749 256.946 151.913C254.517 152.578 252.088 153.243 249.66 153.908C249.596 153.675 249.533 153.443 249.47 153.211Z" fill="#F5FFFA"/>
<path d="M265.969 196.323C266.181 198.786 266.393 201.25 266.605 203.713C266.431 203.73 266.257 203.746 266.083 203.763C265.893 201.303 265.703 198.842 265.513 196.382C265.665 196.362 265.817 196.343 265.969 196.323Z" fill="#F5FFFA"/>
<path d="M273.276 247.36C273.456 249.915 273.635 252.469 273.815 255.024C273.646 255.037 273.476 255.05 273.307 255.062C273.115 252.481 272.923 249.9 272.731 247.319C272.912 247.332 273.094 247.346 273.276 247.36Z" fill="#F5FFFA"/>
<path d="M231.691 176.475C229.964 176.81 228.237 177.145 226.51 177.481C226.479 177.33 226.449 177.178 226.418 177.027C228.157 176.633 229.895 176.238 231.634 175.844C231.654 176.054 231.673 176.265 231.691 176.475Z" fill="#F5FFFA"/>
<path d="M262.421 294.629C262.215 295.122 262.109 295.695 261.788 296.096C259.052 299.516 256.225 302.865 253.532 306.318C251.709 308.655 250.075 311.138 248.31 313.522C248.062 313.857 247.551 313.998 247.161 314.228C247.185 313.773 247.042 313.211 247.257 312.881C250.191 308.373 253.465 304.146 257.249 300.291C258.982 298.525 260.293 296.346 261.796 294.354C262.005 294.445 262.213 294.537 262.421 294.629Z" fill="#F5FFFA"/>
<path d="M251.657 311.706C252.784 308.487 260.049 300.609 263.007 299.328C259.224 303.454 255.44 307.58 251.657 311.706Z" fill="#F5FFFA"/>
<path d="M235.332 310.993C231.623 309.098 227.924 307.188 224.663 304.566C224.782 304.37 224.902 304.174 225.021 303.978C228.52 306.168 232.018 308.358 235.517 310.549C235.456 310.697 235.394 310.845 235.332 310.993Z" fill="#F5FFFA"/>
<path d="M251.344 334.156C248.955 329.917 246.566 325.677 244.177 321.438C244.362 321.335 244.548 321.232 244.733 321.129C247.102 325.398 249.471 329.668 251.84 333.937C251.675 334.01 251.509 334.083 251.344 334.156Z" fill="#F5FFFA"/>
<path d="M204.917 323.382C206.071 319.24 207.225 315.098 208.378 310.956C208.537 310.999 208.695 311.041 208.854 311.084C207.756 315.23 206.658 319.376 205.56 323.522C205.346 323.476 205.131 323.429 204.917 323.382Z" fill="#F5FFFA"/>
<path d="M248.132 323.443C249.658 326.043 251.183 328.643 252.709 331.243C250.495 329.049 248.84 326.525 248.132 323.443Z" fill="#F5FFFA"/>
<path d="M206.852 323.377C207.299 321.504 207.746 319.632 208.192 317.759C208.338 317.789 208.484 317.819 208.63 317.849C208.244 319.727 207.857 321.605 207.471 323.483C207.264 323.448 207.058 323.412 206.852 323.377Z" fill="#F5FFFA"/>
<path d="M183.4 372.933C185.664 375.264 187.632 377.29 189.502 379.215C187.518 379.071 184.285 376.019 183.4 372.933Z" fill="#F5FFFA"/>
<path d="M226.882 333.15C224.771 336.394 222.66 339.638 220.549 342.881C220.401 342.786 220.252 342.691 220.104 342.596C222.175 339.327 224.247 336.058 226.318 332.789C226.505 332.91 226.693 333.03 226.882 333.15Z" fill="#F5FFFA"/>
<path d="M184.177 366.332C183.716 367.229 183.256 368.127 182.795 369.024C182.693 368.981 182.592 368.938 182.49 368.895C183.779 365.428 185.068 361.961 186.357 358.493C186.461 358.526 186.566 358.558 186.67 358.591C185.938 360.922 185.206 363.254 184.475 365.585C184.375 365.835 184.276 366.083 184.177 366.332Z" fill="#F5FFFA"/>
<path d="M227.15 335.097C225.754 337.407 224.357 339.717 222.961 342.027C222.82 341.944 222.678 341.861 222.537 341.778C223.866 339.425 225.195 337.071 226.524 334.718C226.732 334.844 226.941 334.971 227.15 335.097Z" fill="#F5FFFA"/>
<path d="M199.21 376.734C198.922 378.507 196.154 379.832 194.955 379.015C196.445 378.216 197.828 377.475 199.21 376.734Z" fill="#F5FFFA"/>
<path d="M184.177 366.332C184.276 366.083 184.376 365.834 184.475 365.586C185.28 363.758 186.084 361.93 186.889 360.103C187.027 360.154 187.164 360.206 187.302 360.257C186.375 362.574 185.447 364.891 184.52 367.208C184.406 367.184 184.292 367.16 184.178 367.136C184.177 366.868 184.177 366.6 184.177 366.332Z" fill="#F5FFFA"/>
<path d="M378.811 123.337C380.466 125.024 381.468 130.764 380.25 132.151C379.573 129.203 378.917 126.343 378.261 123.482C378.444 123.434 378.627 123.385 378.811 123.337Z" fill="#F5FFFA"/>
<path d="M317.25 146.056C319.585 145.183 321.921 144.309 324.373 143.392C323.582 144.665 319.898 146.151 317.25 146.056Z" fill="#F5FFFA"/>
<path d="M283.672 340.97C282.782 338.362 281.891 335.755 281.001 333.147C281.211 333.079 281.42 333.011 281.63 332.943C282.462 335.573 283.295 338.203 284.127 340.833C283.975 340.879 283.824 340.925 283.672 340.97Z" fill="#F5FFFA"/>
<path d="M266.843 355.798C267.794 358.767 268.745 361.736 269.697 364.705C269.553 364.753 269.41 364.801 269.266 364.849C268.301 361.885 267.336 358.921 266.371 355.956C266.528 355.904 266.686 355.851 266.843 355.798Z" fill="#F5FFFA"/>
<path d="M270.873 363.313C270.074 361.314 269.276 359.315 268.477 357.316C268.635 357.252 268.793 357.189 268.951 357.125C269.75 359.113 270.549 361.101 271.349 363.089C271.19 363.164 271.032 363.239 270.873 363.313Z" fill="#F5FFFA"/>
<path d="M174.778 182.625C171.631 178.924 168.484 175.223 165.337 171.522C165.482 171.397 165.626 171.273 165.771 171.148C168.909 174.848 172.046 178.549 175.184 182.249C175.049 182.374 174.913 182.5 174.778 182.625Z" fill="#F5FFFA"/>
<path d="M172.871 201.358C175.34 204.159 177.808 206.96 180.277 209.761C180.161 209.865 180.044 209.97 179.928 210.074C177.435 207.295 174.941 204.516 172.448 201.737C172.589 201.61 172.73 201.484 172.871 201.358Z" fill="#F5FFFA"/>
<path d="M165.566 174.34C167.472 176.386 169.378 178.432 171.284 180.479C171.309 180.446 171.334 180.413 171.36 180.381C169.337 178.457 167.313 176.532 165.29 174.608C165.382 174.518 165.474 174.429 165.566 174.34Z" fill="#F5FFFA"/>
<path d="M175.214 201.865C177.077 204.035 178.94 206.206 180.803 208.376C180.687 208.478 180.571 208.58 180.456 208.682C178.565 206.536 176.674 204.39 174.783 202.244C174.927 202.118 175.071 201.991 175.214 201.865Z" fill="#F5FFFA"/>
<path d="M243.233 351.167C243.05 353.458 243.089 355.794 242.64 358.032C241.547 363.477 240.223 368.874 239.002 374.293C238.17 377.987 237.754 381.642 239.332 385.3C240.362 387.687 241.135 390.184 241.636 392.785C240.723 390.377 239.67 388.011 238.94 385.549C238.279 383.321 237.576 380.98 237.617 378.702C237.659 376.397 238.477 374.074 239.154 371.818C240.983 365.728 242.054 359.519 242.392 353.176C242.429 352.49 242.561 351.809 242.648 351.126C242.843 351.14 243.038 351.154 243.233 351.167Z" fill="#F5FFFA"/>
<path d="M250.742 395.215C248.34 395.215 245.996 395.215 243.651 395.217C245.138 394.141 250.059 394.181 250.742 395.215Z" fill="#F5FFFA"/>
<path d="M168.889 424.804C169.231 425.062 169.572 425.32 170.116 425.731C170.594 424.422 170.984 423.356 171.374 422.29C171.519 422.317 171.663 422.344 171.808 422.371C171.548 423.371 171.287 424.371 171.021 425.395C173.281 426.212 175.653 427.07 178.335 428.04C178.589 427.445 178.959 426.575 179.302 425.77C179.881 426.263 179.881 426.263 178.767 428.842C179.798 429.267 181.486 429.311 180.816 431.089C180.33 432.378 179.265 432.755 177.925 431.809C177.504 432.613 177.227 433.405 176.728 434.014C176.275 434.567 175.58 434.922 174.644 435.139C175.154 433.842 175.664 432.544 176.287 430.957C173.869 430.072 171.485 429.199 169.205 428.364C168.302 430.495 167.312 432.453 166.644 434.516C165.994 436.524 165.675 438.638 165.211 440.706C165.059 440.678 164.907 440.651 164.755 440.623C165.14 438.686 165.403 436.714 165.944 434.822C166.5 432.879 167.329 431.014 168.036 429.121C165.706 428.172 165.393 427.52 166.104 425.675C166.711 424.102 167.779 424.339 168.951 424.87C168.949 424.87 168.889 424.804 168.889 424.804ZM167.71 426.927C170.926 428.105 173.875 429.199 176.837 430.255C177.304 430.421 177.832 430.416 178.332 430.49C178.064 430.034 177.895 429.46 177.512 429.143C175.094 427.141 172.042 426.871 169.135 426.253C168.748 426.172 168.24 426.663 167.71 426.927Z" fill="#F5FFFA"/>
<path d="M177.331 444.454C181.565 439.864 183.703 434.517 183.418 428.116C185.369 433.029 182.496 440.181 177.331 444.454Z" fill="#F5FFFA"/>
<path d="M174.235 435.124C173.975 435.802 173.729 436.486 173.452 437.157C172.816 438.701 172.286 440.305 171.486 441.76C170.669 443.248 169.291 444.036 167.48 443.903C171.648 442.396 172.007 438.111 174.235 435.124Z" fill="#F5FFFA"/>
<path d="M168.717 432.168C167.992 434.523 167.266 436.877 166.541 439.232C166.383 439.185 166.225 439.137 166.067 439.09C166.788 436.734 167.509 434.378 168.23 432.023C168.392 432.07 168.554 432.119 168.717 432.168Z" fill="#F5FFFA"/>
<path d="M334.174 34.371C334.917 34.518 335.669 34.631 336.402 34.818C338.293 35.301 339.253 36.823 338.691 38.653C338.373 39.686 338.531 40.242 339.369 41.032C340.047 41.672 340.198 42.927 340.454 43.943C340.701 44.921 339.46 45.943 340.448 46.993C340.474 47.021 339.844 47.936 339.399 48.095C336.383 49.172 333.338 50.165 330.296 51.167C327.7 52.022 325.103 52.878 322.492 53.687C319.996 54.461 317.505 55.266 314.971 55.891C312.01 56.622 310.252 55.969 308.974 53.931C307.467 51.527 308.599 49.397 310.043 47.648C311.337 46.079 313.234 45.023 314.763 43.629C316.531 42.017 318.184 40.279 319.892 38.601C322.646 35.896 325.349 33.138 328.176 30.512C330.571 28.288 332.171 28.673 333.52 31.616C333.877 32.396 334.178 33.201 334.505 33.995C334.395 34.121 334.284 34.246 334.174 34.371ZM336.719 36.932C333.462 35.716 332.388 35.95 330.204 38.235C329.961 38.49 329.714 38.746 329.44 38.966C325.931 41.783 322.404 44.578 318.923 47.429C318.565 47.722 318.47 48.336 318.253 48.801C318.729 48.833 319.276 49.035 319.67 48.87C325.163 46.564 330.636 44.207 335.802 41.996C336.134 40.164 336.418 38.596 336.719 36.932ZM316.892 46.948C320.102 44.553 323.391 42.39 326.32 39.818C328.556 37.855 331.063 35.914 331.784 32.731C331.907 32.188 331.669 31.564 331.597 30.977C330.992 31.06 330.24 30.944 329.809 31.263C328.311 32.372 326.817 33.527 325.519 34.857C322.628 37.821 319.943 40.991 316.991 43.889C315.881 44.981 315.761 45.711 316.892 46.948ZM338.958 46.823C338.723 45.267 338.566 44.228 338.327 42.639C332.028 45.23 325.916 47.744 319.682 50.309C320.258 51.301 320.6 51.89 321.011 52.598C327.124 50.63 333.131 48.697 338.958 46.823ZM318.36 52.729C316.829 50.558 315.452 48.606 313.787 46.244C312.67 47.866 311.511 49.178 310.784 50.697C309.783 52.788 311.293 54.611 313.578 54.155C315.149 53.842 316.664 53.247 318.36 52.729Z" fill="#F5FFFA"/>
<path d="M203.99 281.609C215.926 286.199 229.307 286.326 241.201 281.469C254.798 275.917 264.919 263.185 280.229 261.878C281.343 261.783 281.353 260.032 280.229 260.128C266.933 261.263 257.572 270.552 246.515 276.905C233.643 284.302 218.251 285.227 204.455 279.921C203.403 279.517 202.948 281.209 203.99 281.609Z" fill="#F5FFFA"/>
<path d="M206.799 287.009C207.162 285.226 207.36 283.431 207.383 281.611C206.966 281.611 206.55 281.611 206.133 281.611C206.293 283.615 206.261 285.607 206.038 287.605C205.949 288.403 207.2 288.397 207.288 287.605C207.511 285.607 207.543 283.615 207.383 281.611C207.32 280.819 206.144 280.796 206.133 281.611C206.111 283.321 205.935 285 205.593 286.677C205.434 287.462 206.639 287.798 206.799 287.009Z" fill="#F5FFFA"/>
<path d="M211.843 288.349C211.885 286.721 211.838 285.099 211.701 283.476C211.634 282.68 210.383 282.673 210.451 283.476C210.588 285.099 210.635 286.721 210.593 288.349C210.572 289.154 211.822 289.154 211.843 288.349Z" fill="#F5FFFA"/>
<path d="M271.989 263.392C272.222 264.702 272.455 266.012 272.689 267.322C273.091 267.211 273.493 267.1 273.894 266.99C273.492 265.763 273.213 264.511 273.081 263.226C273 262.434 271.749 262.425 271.831 263.226C271.974 264.625 272.25 265.986 272.689 267.323C272.943 268.096 274.034 267.777 273.894 266.991C273.661 265.681 273.428 264.371 273.194 263.061C273.054 262.27 271.849 262.605 271.989 263.392Z" fill="#F5FFFA"/>
<path d="M277.037 265.795C276.824 264.411 276.612 263.027 276.399 261.644C276.29 260.935 275.173 261.124 275.171 261.81C275.169 262.942 275.313 264.052 275.601 265.146C275.806 265.923 277.012 265.593 276.806 264.814C276.544 263.824 276.418 262.835 276.42 261.811C276.011 261.866 275.602 261.922 275.192 261.977C275.405 263.361 275.617 264.745 275.83 266.128C275.953 266.92 277.158 266.583 277.037 265.795Z" fill="#F5FFFA"/>
</g>
<defs>
<filter id="filter0_d_22_583" x="-4" y="0" width="508" height="508" filterUnits="userSpaceOnUse" color-interpolation-filters="sRGB">
<feFlood flood-opacity="0" result="BackgroundImageFix"/>
<feColorMatrix in="SourceAlpha" type="matrix" values="0 0 0 0 0 0 0 0 0 0 0 0 0 0 0 0 0 0 127 0" result="hardAlpha"/>
<feOffset dy="4"/>
<feGaussianBlur stdDeviation="2"/>
<feComposite in2="hardAlpha" operator="out"/>
<feColorMatrix type="matrix" values="0 0 0 0 0 0 0 0 0 0 0 0 0 0 0 0 0 0 0.25 0"/>
<feBlend mode="normal" in2="BackgroundImageFix" result="effect1_dropShadow_22_583"/>
<feBlend mode="normal" in="SourceGraphic" in2="effect1_dropShadow_22_583" result="shape"/>
</filter>
</defs>
</svg>
