<svg width="512" height="385" viewBox="0 0 512 385" fill="none" xmlns="http://www.w3.org/2000/svg">
<path opacity="0.9" d="M498.5 357.5L512 384.5H464.5C464.5 384.5 370.5 360 361.5 324.5C352.5 289 345 265.5 330.5 249.5C316 233.5 245.5 213.5 219.5 188.5C193.5 163.5 164 141 141 131.5C118 122 108.862 114.89 87 107.5C54.2395 96.4268 0 91 0 91V0C0 0 26.2941 26.4637 45.5 40.5C94.1548 76.0586 149.824 52.2842 188.5 98.5C204.762 117.932 202.166 137.018 219.5 155.5C247.953 185.836 286.993 168.279 318 196C340.529 216.142 361.5 260 361.5 260L425 295.5L464.5 336L498.5 357.5Z" fill="#D2D2E6"/>
</svg>
