<svg width="668" height="466" viewBox="0 0 668 466" fill="none" xmlns="http://www.w3.org/2000/svg">
<path opacity="0.9" d="M151 378C91.0005 407.5 0 466 0 466H127.5C127.5 466 225.5 369.5 262 378C298.5 386.5 299.708 391.748 324.5 390C370.109 386.785 378.292 334.335 423.5 327.5C457.305 322.389 458.5 338.037 510 341C561.5 343.963 566 270.5 620 273.5H667.5V0L595.5 59C551 70 506.5 49.1673 475 70C443.5 90.8327 414 169.905 380 186.5C346 203.095 304.999 178.5 255 226C205 273.5 211 348.5 151 378Z" fill="#D2D2E6" fill-opacity="0.7"/>
</svg>
